<svg version="1.1" id="Layer_1" xmlns="http://www.w3.org/2000/svg" xmlns:xlink="http://www.w3.org/1999/xlink" x="0px" y="0px" enable-background="new 0 0 5000 2545" xml:space="preserve" viewBox="2 2.05 5000 2545.9">
<path fill="#2990E2" opacity="1.000000" stroke="none" d=" M2.000000,1664.000000   C2.000000,1110.052246 2.000000,556.104431 2.000000,2.078309   C1668.457397,2.078309 3334.914795,2.078309 5002.000000,2.078309   C5002.000000,589.403015 5002.000000,1176.806274 5001.072266,1765.256104   C4938.820801,1766.361816 4877.496582,1766.420654 4816.172852,1766.480347   C4813.173340,1766.483276 4810.169922,1766.398560 4807.175293,1766.520386   C4799.348633,1766.838379 4798.394043,1767.926758 4798.982422,1775.324341   C4799.271484,1778.969849 4799.666504,1782.622559 4799.670410,1786.272461   C4799.717773,1830.933228 4799.715820,1875.593994 4799.674805,1920.254761   C4799.671387,1923.823242 4799.283691,1927.391479 4799.032227,1931.689819   C4789.413086,1931.689819 4780.653320,1931.689819 4770.983398,1931.689819   C4770.733887,1926.483765 4770.325684,1921.919312 4770.323730,1917.354736   C4770.287598,1815.034912 4770.308105,1712.715088 4770.257812,1610.395264   C4770.255859,1605.903198 4769.686523,1601.411377 4769.322754,1596.047363   C4756.919434,1596.047363 4745.632324,1596.170044 4734.349609,1596.012817   C4723.208496,1595.857422 4711.994629,1596.724731 4700.729492,1595.411377   C4701.290039,1584.118164 4702.042969,1574.179199 4702.192383,1564.231079   C4702.305176,1556.751831 4700.339844,1554.942505 4692.902832,1554.177246   C4690.591797,1553.939331 4688.241211,1554.056030 4685.908691,1554.051392   C4615.587891,1553.913696 4545.267090,1553.779785 4474.946289,1553.649414   C4466.947266,1553.634644 4458.947754,1553.712402 4450.950195,1553.611572   C4447.717285,1553.570801 4444.488281,1553.166016 4439.913086,1552.827393   C4439.913086,1529.845215 4439.913086,1507.618896 4439.913086,1485.392578   C4439.913086,1463.062256 4439.913086,1440.731812 4439.913086,1418.401489   C4439.913086,1396.071045 4439.913086,1373.740723 4439.913086,1351.410278   C4439.913086,1328.746582 4439.913086,1306.083008 4439.913086,1283.419312   C4439.913086,1261.088989 4439.913086,1238.758545 4439.913086,1216.428223   C4439.913086,1194.097778 4439.973633,1171.767212 4439.895996,1149.437012   C4439.818359,1127.219116 4440.250488,1104.985962 4439.595215,1082.528320   C4433.208008,1081.627686 4428.049805,1080.900513 4422.380859,1080.101074   C4421.889160,1071.404419 4421.429688,1063.271240 4420.973145,1055.190308   C4416.661621,1054.472168 4413.418945,1053.932129 4409.823242,1053.333252   C4408.996094,1049.048950 4408.198730,1044.918579 4407.289062,1040.208374   C4400.479004,1039.601074 4394.015137,1039.024658 4387.229492,1038.419434   C4386.548340,1032.110107 4385.958496,1026.645508 4385.275391,1020.317871   C4368.087891,1020.038696 4351.660645,1019.712952 4334.924316,1020.400513   C4334.320801,1027.003174 4333.844238,1032.219849 4333.251953,1038.705322   C4305.540039,1039.716797 4278.241211,1040.255127 4250.910645,1037.251465   C4250.226074,1031.042236 4249.661621,1025.918579 4249.041992,1020.297729   C4234.820801,1020.157410 4221.695801,1019.375000 4208.531738,1020.741943   C4207.851562,1027.183960 4207.309082,1032.319092 4206.739746,1037.706543   C4194.375977,1038.286987 4183.098633,1039.152710 4171.812988,1039.274902   C4149.485352,1039.516724 4127.153320,1039.308594 4104.822754,1039.385254   C4100.943848,1039.398560 4097.067383,1039.898071 4093.038086,1040.183838   C4092.155518,1045.168579 4091.428223,1049.277466 4090.509277,1054.468262   C4081.727051,1054.468262 4073.541748,1054.468262 4064.629395,1054.468262   C4064.099609,1063.719482 4063.635498,1071.823975 4063.128662,1080.674072   C4052.086914,1081.146973 4041.982178,1081.579712 4031.231689,1082.040161   C4030.967041,1087.431519 4030.578369,1091.690918 4030.575928,1095.950562   C4030.538086,1164.941406 4030.549072,1233.932373 4030.548828,1302.923218   C4030.548584,1351.583374 4030.575684,1400.243652 4030.499023,1448.903687   C4030.492432,1453.038330 4029.793701,1457.171753 4029.444580,1461.000732   C4013.949463,1463.132446 3945.860107,1462.415649 3937.451416,1459.829956   C3937.451416,1455.657471 3937.451172,1451.071899 3937.451172,1446.486206   C3937.450928,1327.168701 3937.455322,1207.851074 3937.434570,1088.533569   C3937.433838,1083.872803 3937.143066,1079.212646 3937.075928,1074.551025   C3936.850098,1058.904785 3936.461426,1043.257324 3936.519287,1027.611694   C3936.581787,1010.633606 3937.282471,993.657104 3937.278809,976.679993   C3937.277100,969.780273 3936.152100,962.880737 3935.466797,955.180603   C3931.399414,954.926941 3927.825684,954.529053 3924.249756,954.511597   C3909.252197,954.438171 3894.253906,954.531250 3879.256348,954.438171   C3875.722168,954.416260 3872.190918,953.907471 3868.362549,953.598755   C3867.685303,946.798584 3867.105225,940.975281 3866.447998,934.377808   C3851.539795,934.149597 3837.412598,932.741882 3822.634277,934.444519   C3821.963379,941.189758 3821.356201,947.297180 3820.641846,954.479614   C3815.582520,954.479614 3811.308838,954.479553 3807.035400,954.479614   C3761.041504,954.479736 3715.047607,954.456726 3669.053711,954.519348   C3664.892822,954.525024 3660.732178,955.082214 3656.459961,955.391296   C3655.776855,959.727478 3654.808105,963.001343 3654.819580,966.271790   C3654.892334,987.249329 3655.207275,1008.225952 3655.380371,1029.203369   C3655.434326,1035.736328 3657.123535,1042.441895 3653.787354,1048.836914   C3650.116455,1049.558350 3646.613281,1050.246826 3641.848145,1051.183350   C3641.848145,1101.504517 3641.848145,1151.575195 3641.848145,1202.255615   C3637.421875,1202.255615 3634.371094,1202.255615 3630.106689,1202.255615   C3630.106689,1184.873169 3630.106689,1168.288818 3630.106689,1151.704468   C3630.106689,1134.706787 3630.149658,1117.708862 3630.094727,1100.711304   C3630.041504,1084.166016 3630.346191,1067.605835 3629.872070,1051.030640   C3624.710205,1050.099121 3620.896973,1049.411011 3616.398926,1048.599365   C3614.995605,1029.181396 3616.959961,1009.973267 3615.230957,990.961853   C3607.963623,990.327576 3602.158203,989.820923 3596.499023,989.327026   C3596.105713,986.825989 3595.728760,985.523254 3595.720947,984.218323   C3595.600830,963.902466 3595.574219,943.585999 3595.427490,923.270386   C3595.352783,912.933960 3594.995605,912.519958 3584.723145,912.509277   C3534.063232,912.456482 3483.403076,912.467651 3432.743164,912.533386   C3429.562744,912.537476 3426.383057,913.198303 3422.750244,913.604309   C3421.455566,939.406738 3423.214355,964.294373 3421.629395,990.404724   C3408.697266,990.404724 3396.887451,990.404724 3384.332520,990.404724   C3384.076904,995.316589 3383.749512,998.896484 3383.729736,1002.478088   C3383.659424,1015.142700 3383.804443,1027.809204 3383.651367,1040.472412   C3383.547852,1049.045410 3382.936523,1049.392944 3374.567383,1049.855225   C3368.053467,1050.215088 3361.341553,1048.658691 3353.893555,1051.695190   C3353.893555,1055.955688 3353.893311,1060.213745 3353.893311,1064.471680   C3353.893066,1142.794678 3353.921875,1221.117676 3353.813477,1299.440552   C3353.807617,1303.623535 3352.648438,1307.804810 3351.810547,1311.355347   C3350.581299,1309.265381 3349.567627,1307.807129 3347.823242,1305.296997   C3338.744629,1324.845825 3330.186035,1343.274902 3320.764648,1361.740234   C3315.681885,1361.776611 3311.461914,1361.776611 3306.203613,1361.776611   C3304.901611,1275.015869 3305.606201,1189.459473 3305.462646,1103.909668   C3305.319092,1018.371399 3305.626709,932.830933 3305.383545,846.631836   C3297.537842,846.036499 3291.086670,845.546936 3284.122070,845.018433   C3283.622070,836.252258 3283.176025,828.429810 3282.685791,819.830627   C3276.628174,819.178406 3271.409912,818.390930 3266.164795,818.108521   C3259.515137,817.750305 3252.832031,817.987244 3246.187012,817.582886   C3243.681641,817.430420 3240.079346,816.977966 3238.978516,815.327454   C3234.834717,809.114624 3228.869629,809.834351 3222.906250,809.835022   C3167.582031,809.840942 3112.257812,809.837402 3056.933594,809.838989   C3048.601562,809.839233 3040.265381,809.702454 3031.940430,809.948486   C3029.422119,810.022949 3025.370605,810.465393 3024.699707,811.950073   C3021.367920,819.319336 3015.143799,817.764404 3009.321533,818.079041   C2998.471924,818.665344 2987.632080,819.431824 2976.229980,820.158936   C2975.627441,828.962769 2975.093262,836.765076 2974.519287,845.146790   C2966.863770,845.832275 2960.077637,846.439880 2952.910645,847.081665   C2952.662354,850.982300 2952.331055,853.923096 2952.310303,856.866150   C2952.139160,881.191833 2951.921875,905.517883 2951.911865,929.843933   C2951.869629,1033.493652 2951.902588,1137.143311 2951.865234,1240.792969   C2951.863525,1245.333984 2951.441650,1249.874756 2951.161621,1255.503906   C2945.779785,1255.204712 2941.424072,1254.962524 2936.296387,1254.677368   C2936.296387,1229.830200 2936.296387,1206.200928 2936.296387,1182.571655   C2936.296387,1158.908813 2936.344238,1135.245972 2936.282959,1111.583252   C2936.221680,1088.039062 2936.566895,1064.483521 2936.031982,1040.241211   C2931.549316,1039.876831 2928.322998,1039.439209 2925.090576,1039.387451   C2917.760254,1039.270020 2910.402344,1038.968872 2903.101807,1039.447632   C2896.404785,1039.886963 2892.739990,1037.200806 2890.164062,1031.125000   C2885.224854,1019.474243 2879.448486,1008.179932 2874.433838,996.558899   C2871.766602,990.378052 2868.258301,987.374084 2860.952393,987.483154   C2832.676270,987.905212 2804.390625,987.610413 2776.108398,987.679932   C2767.526123,987.701050 2767.454834,987.818115 2764.582031,995.571899   C2760.299316,1007.130676 2756.113037,1018.725281 2751.917236,1030.316040   C2748.748291,1039.070312 2748.635254,1039.213501 2738.969482,1039.327759   C2731.971680,1039.410522 2724.968750,1039.245728 2717.975342,1039.446533   C2715.471436,1039.518433 2712.988770,1040.338135 2709.703613,1040.968628   C2709.703613,1046.611572 2709.703613,1051.569946 2709.703613,1056.528320   C2709.703613,1223.500977 2709.703613,1390.473633 2709.703369,1557.446289   C2709.703369,1560.445801 2709.747314,1563.446167 2709.689453,1566.444702   C2709.527344,1574.816650 2709.510498,1574.816284 2701.536377,1577.745972   C2676.496826,1586.945923 2661.190674,1608.173340 2660.604492,1634.812378   C2660.384766,1644.806030 2660.643555,1654.809692 2660.496582,1664.805908   C2660.445068,1668.292358 2659.830322,1671.770630 2659.467041,1675.307617   C2650.759033,1676.114136 2643.268799,1676.920898 2635.159424,1674.703613   C2634.954590,1670.077271 2634.603760,1665.817383 2634.601562,1661.557373   C2634.567627,1590.235718 2634.593994,1518.914062 2634.531982,1447.592407   C2634.528320,1443.444824 2633.882080,1439.297729 2633.442627,1434.049561   C2600.201172,1434.049561 2568.025879,1434.049561 2535.007812,1434.049561   C2534.726318,1429.351196 2534.341797,1425.784790 2534.328125,1422.216919   C2534.261963,1404.886719 2534.384521,1387.555420 2534.275635,1370.225708   C2534.028320,1330.914185 2505.984131,1302.703125 2466.796875,1302.516846   C2433.802979,1302.360107 2400.807617,1302.379028 2367.813477,1302.510376   C2328.814697,1302.665771 2300.494385,1331.216797 2300.281006,1370.315918   C2300.184570,1387.976440 2300.049072,1405.637085 2299.867676,1423.296997   C2299.834473,1426.534668 2299.496826,1429.769287 2299.295410,1433.075439   C2291.639893,1434.212280 2291.865723,1429.459595 2291.759766,1425.139038   C2291.245361,1404.179932 2290.380371,1383.220215 2290.361084,1362.260010   C2290.234863,1225.948975 2290.274902,1089.638062 2290.336426,953.327026   C2290.341309,942.903320 2289.458008,932.698608 2285.783203,922.865112   C2274.412598,892.437073 2253.339600,872.258545 2222.227295,862.675842   C2214.573242,860.318298 2214.410645,860.310791 2214.344238,852.457581   C2214.217529,837.461121 2214.345459,822.462585 2214.260498,807.465515   C2214.240479,803.928284 2213.793457,800.393433 2213.447021,795.507446   C2198.736572,795.507446 2184.928467,795.507446 2170.399658,795.507446   C2168.539551,769.730042 2170.968994,745.166565 2168.932617,719.690796   C2153.926758,719.450684 2139.792236,719.224487 2124.909668,718.986328   C2124.658691,714.020081 2124.351074,710.448059 2124.320312,706.873657   C2124.202148,693.210999 2124.177002,679.547546 2124.108398,665.884399   C2124.092285,662.682312 2123.789307,659.718262 2118.806396,660.700500   C2117.081055,679.740417 2119.768799,698.996155 2117.275391,718.072632   C2102.663086,721.248535 2088.510498,717.307434 2073.703613,720.911133   C2073.703613,729.535950 2073.703613,737.785156 2073.703613,746.034363   C2073.703613,754.033081 2073.956299,762.041992 2073.633057,770.027588   C2073.302979,778.191467 2075.161133,786.547241 2071.771729,795.957031   C2057.698975,795.957031 2043.577026,795.957031 2028.380005,795.957031   C2028.077393,818.510315 2027.794067,839.630493 2027.514160,860.488953   C2023.700439,861.716736 2021.172363,862.511475 2018.656616,863.343445   C1978.375244,876.663940 1953.426025,909.921265 1951.979004,952.343750   C1951.422974,968.640564 1950.912842,984.940674 1950.591553,1001.243408   C1949.758423,1043.523682 1948.958008,1085.805176 1948.300659,1128.088623   C1947.544800,1176.717041 1946.951538,1225.347778 1946.297119,1273.977783   C1945.705322,1317.941406 1945.154541,1361.905640 1944.495728,1405.868286   C1944.432739,1410.077637 1943.730957,1414.277466 1943.301758,1418.728760   C1936.273682,1418.728760 1930.195190,1418.728760 1923.290039,1418.728760   C1923.024414,1413.297485 1922.607056,1408.726685 1922.605591,1404.155762   C1922.569458,1289.174561 1922.586792,1174.193481 1922.542969,1059.212280   C1922.541138,1054.357544 1922.042969,1049.503052 1921.797607,1045.041382   C1919.704712,1044.311279 1918.801270,1043.831787 1917.849976,1043.700684   C1916.205688,1043.474121 1914.531860,1043.374878 1912.870361,1043.375122   C1814.220459,1043.385620 1715.570435,1043.408936 1616.920532,1043.468872   C1615.626099,1043.469604 1614.328369,1043.938843 1613.039917,1044.224365   C1612.723755,1044.294434 1612.401733,1044.457764 1612.148926,1044.660767   C1611.895630,1044.864136 1611.725464,1045.171143 1610.285278,1046.994629   C1610.285278,1049.677124 1610.291260,1053.932251 1610.284424,1058.187256   C1610.211304,1103.511108 1610.136108,1148.834839 1609.144409,1194.191772   C1602.329102,1194.224854 1596.431030,1194.224854 1589.200562,1194.224854   C1589.200562,1217.962280 1589.200562,1240.439209 1589.200562,1263.998535   C1579.694824,1263.998535 1571.529663,1263.998535 1562.330566,1263.998535   C1562.330566,1294.363770 1562.343506,1323.604736 1562.326904,1352.845703   C1562.310059,1382.366211 1562.407593,1411.889160 1562.258423,1442.057251   C1557.298340,1441.839722 1553.834106,1441.687866 1550.047363,1441.521851   C1550.047363,1412.254395 1550.047363,1383.990967 1550.047363,1355.164307   C1550.898193,1354.638306 1552.065674,1354.096558 1553.009033,1353.291870   C1554.500366,1352.019897 1556.219604,1350.793335 1557.178589,1349.158325   C1560.643433,1343.250610 1557.031128,1333.517090 1548.938477,1333.959717   C1541.488403,1334.367432 1533.984619,1333.791138 1526.534668,1333.648804   C1525.992554,1327.975464 1525.591309,1323.777222 1525.157715,1319.239746   C1511.389282,1319.239746 1498.242188,1319.239746 1484.799683,1319.239746   C1484.270630,1324.355713 1483.806519,1328.842773 1483.317871,1333.567627   C1478.438477,1333.567627 1474.222656,1333.567627 1468.731323,1333.567627   C1468.731323,1319.664551 1468.731323,1306.175903 1468.731323,1292.245605   C1448.685425,1292.245605 1429.920044,1292.245605 1409.960449,1292.245605   C1409.960449,1306.379639 1409.960449,1319.877441 1409.960449,1333.581909   C1405.852661,1333.581909 1402.943115,1333.581909 1399.579834,1333.581909   C1398.989258,1328.707764 1398.441284,1324.186768 1397.909302,1319.796509   C1387.420166,1317.816895 1280.468262,1318.165649 1272.863770,1320.198242   C1272.459351,1324.593506 1272.045288,1329.093750 1271.632812,1333.576782   C1267.827515,1333.576782 1264.908325,1333.576782 1260.587158,1333.576782   C1260.587158,1324.799927 1260.587158,1316.424561 1260.587158,1308.049316   C1259.895752,1307.888428 1259.204346,1307.727539 1258.512939,1307.566650   C1254.257080,1312.955688 1249.531128,1318.045288 1245.863037,1323.808472   C1241.130859,1331.243530 1235.066895,1334.985596 1226.140869,1332.865967   C1226.017212,1250.633789 1225.995605,1169.322510 1225.849121,1088.011353   C1225.840088,1083.037231 1227.241211,1079.505981 1230.917114,1075.842285   C1236.462158,1070.315552 1233.576904,1062.436768 1225.888428,1060.662354   C1223.337769,1060.073730 1220.588501,1060.251953 1217.929443,1060.242920   C1206.265869,1060.203003 1194.601685,1060.283936 1182.938843,1060.180664   C1179.758545,1060.152588 1176.582520,1059.634766 1172.904175,1059.295654   C1172.904175,1044.755737 1172.904175,1031.220459 1172.904175,1018.093445   C1173.747192,1017.233093 1174.121094,1016.541077 1174.675659,1016.334656   C1178.885742,1014.767456 1183.173096,1013.131165 1182.005859,1007.398865   C1180.753662,1001.249084 1175.656738,1001.433044 1170.946899,1001.384888   C1163.282959,1001.306580 1155.617188,1001.410645 1147.953369,1001.327942   C1142.382080,1001.267822 1136.812744,1001.030579 1129.898071,1000.834167   C1129.898071,992.544250 1130.014648,985.310913 1129.868774,978.082947   C1129.682739,968.861389 1128.666382,967.795898 1119.388916,967.695862   C1106.060547,967.552185 1092.729004,967.711914 1079.400024,967.604675   C1075.901611,967.576599 1072.407104,967.041504 1067.874756,966.649658   C1067.874756,952.795349 1067.874756,940.040894 1067.874756,927.286499   C1067.312134,927.278931 1066.749390,927.271423 1066.186768,927.263916   C1065.472168,940.340820 1064.757446,953.417725 1064.014893,967.005188   C1059.354736,967.271851 1056.089844,967.602234 1052.823364,967.620117   C1040.826782,967.685974 1028.829590,967.618774 1016.832764,967.657104   C1003.919861,967.698303 1004.067261,967.730469 1003.641357,980.235840   C1003.417358,986.814392 1002.572937,993.371826 1001.947815,1000.646362   C997.203735,1000.910278 993.286987,1001.272095 989.366516,1001.318054   C979.370605,1001.435425 969.372803,1001.382202 959.376282,1001.459290   C955.428162,1001.489746 951.938782,1002.727234 950.799866,1006.904663   C949.624634,1011.215271 952.123169,1013.784058 955.842957,1015.438232   C957.020325,1015.961792 958.167908,1016.552429 959.735718,1017.308472   C960.221497,1031.239746 960.360413,1045.064819 959.689087,1059.612671   C954.929688,1059.856567 951.352295,1060.174316 947.772949,1060.198853   C935.443420,1060.283325 923.105286,1060.000854 910.786011,1060.374390   C901.712952,1060.649292 896.423889,1067.717285 901.038086,1074.001953   C905.749451,1080.418823 905.406128,1086.955200 905.406738,1093.838989   C905.425720,1319.780396 905.420959,1545.721802 905.432617,1771.663208   C905.432861,1776.325806 905.584534,1780.988281 904.839783,1785.823242   C901.521484,1785.840088 899.028931,1785.684326 896.488586,1785.525635   C896.281860,1783.414062 896.174011,1782.110107 896.024109,1780.811157   C893.460632,1758.598633 882.945923,1749.184326 860.780151,1749.110352   C855.296326,1749.092163 849.813354,1748.776001 843.741028,1748.577515   C845.039612,1736.090698 842.038574,1726.425659 831.899109,1719.161865   C832.034180,1697.902344 832.384033,1677.575806 832.017700,1657.262085   C831.655090,1637.156250 834.386719,1616.928223 831.052856,1597.115967   C816.846069,1595.061890 533.019470,1595.714111 524.819641,1597.889526   C524.650696,1601.505127 524.280762,1605.419922 524.314087,1609.331299   C524.645508,1648.287354 525.203796,1687.242432 525.348511,1726.198975   C525.411438,1743.166626 524.380554,1760.136841 524.367981,1777.106445   C524.356384,1792.742676 525.358887,1808.379761 525.339844,1824.015869   C525.317932,1841.986816 524.328064,1859.957764 524.366394,1877.927368   C524.418945,1902.559448 525.146729,1927.189331 525.388367,1951.822144   C525.564453,1969.773438 525.560547,1987.729248 525.390747,2005.680664   C525.129456,2033.310547 524.682007,2060.938965 524.232605,2088.566406   C524.191406,2091.096436 523.565247,2093.616943 523.171875,2096.418457   C516.993225,2097.093262 511.433411,2097.700439 505.148956,2098.158936   C502.953156,2098.024170 501.482056,2098.038086 499.095703,2097.826416   C475.529633,2097.515625 452.878510,2097.473389 430.228333,2097.303711   C426.398407,2097.274902 422.572571,2096.698242 417.913513,2096.304443   C417.913513,2090.597168 417.913513,2085.977539 417.913513,2081.358154   C417.913330,1891.468506 417.919006,1701.578735 417.880371,1511.689087   C417.879364,1506.830322 417.392944,1501.971558 417.127655,1497.014404   C403.789612,1494.603271 391.042267,1497.738281 377.564667,1494.585449   C377.564667,1476.307739 377.564667,1458.790649 377.564667,1441.646362   C366.591583,1438.992676 244.796432,1439.293335 236.189026,1441.943359   C235.976212,1459.391357 235.759384,1477.167847 235.536163,1495.468140   C213.717911,1496.972290 193.169586,1495.024658 171.893646,1496.736328   C171.893646,1501.675049 171.893646,1505.292725 171.893661,1508.910400   C171.893738,1663.487305 171.886063,1818.064087 171.937759,1972.640991   C171.939087,1976.596802 172.591919,1980.552246 172.771820,1985.217773   C170.869629,1989.058838 169.472763,1992.441772 167.348877,1995.280640   C153.653778,2013.586304 139.799744,2031.773071 125.429291,2050.556152   C123.909081,2051.989502 122.978050,2053.597656 122.002663,2053.625000   C114.478149,2053.836182 106.945068,2053.741455 98.553345,2053.741455   C96.820686,2031.091797 99.059837,2009.237305 97.227783,1987.111694   C87.874207,1986.626221 79.728477,1986.203369 70.296700,1985.713745   C70.296700,1980.169922 70.296700,1975.592773 70.296692,1971.015503   C70.296631,1873.731201 70.305702,1776.446777 70.267662,1679.162476   C70.265884,1674.616211 69.843613,1670.070068 69.564690,1664.470337   C46.447395,1664.309448 24.223698,1664.154663 2.000000,1664.000000  z"/>
<path fill="#F9F9FF" opacity="1.000000" stroke="none" d=" M3321.627441,1361.703979   C3330.186035,1343.274902 3338.744629,1324.845825 3347.823242,1305.296997   C3349.567627,1307.807129 3350.581299,1309.265381 3351.531006,1311.867432   C3352.282471,1315.499390 3352.821777,1318.122314 3353.959473,1320.453125   C3359.805664,1332.426392 3366.098877,1344.190430 3371.637939,1356.300903   C3374.815430,1363.248169 3379.229004,1366.501587 3387.047852,1366.277588   C3393.526611,1366.092041 3400.302246,1364.756592 3406.899658,1367.888062   C3407.225830,1370.294678 3407.607666,1372.557007 3407.828369,1374.834961   C3408.717773,1384.022949 3410.085205,1385.292114 3419.560547,1385.960815   C3422.734375,1386.184814 3425.888428,1386.687988 3428.516602,1387.000122   C3432.409668,1396.321045 3424.345459,1410.026489 3441.114746,1411.502686   C3441.343750,1415.284058 3441.667969,1418.550293 3441.712891,1421.820312   C3441.804199,1428.485596 3441.672119,1435.153809 3441.764893,1441.819092   C3441.916504,1452.738892 3443.182861,1454.031128 3453.730225,1454.240601   C3457.728760,1454.320068 3461.732666,1454.162354 3465.729004,1454.287598   C3469.955322,1454.420044 3474.174805,1454.760986 3479.210205,1455.058838   C3479.484375,1459.764771 3479.908447,1463.656860 3479.906982,1467.548584   C3479.897217,1498.880249 3479.759033,1530.212036 3479.750244,1561.543701   C3479.724609,1652.207642 3479.764404,1742.871704 3479.691162,1833.535645   C3479.686035,1839.841064 3478.705566,1846.143066 3478.630615,1852.451904   C3478.416992,1870.445557 3478.251465,1888.444336 3478.461182,1906.436401   C3478.538818,1913.078247 3481.175781,1915.549927 3487.527588,1915.960815   C3492.838135,1916.304199 3498.203857,1916.302246 3503.515869,1915.975220   C3509.759033,1915.591064 3511.530273,1913.625122 3512.047119,1907.236572   C3512.288818,1904.254517 3512.157471,1901.240356 3512.157715,1898.240845   C3512.162598,1853.575562 3512.160889,1808.910156 3512.161133,1764.244873   C3512.161377,1675.580811 3512.153809,1586.916748 3512.184814,1498.252686   C3512.186279,1494.081787 3512.529785,1489.910767 3512.760498,1484.682129   C3517.681885,1485.685181 3521.217285,1486.288818 3524.694336,1487.132202   C3572.928711,1498.830200 3621.173340,1510.485474 3669.371826,1522.329102   C3683.973877,1525.916992 3683.698975,1523.980225 3683.711182,1540.825928   C3683.834961,1709.817871 3683.976562,1878.809937 3684.113525,2047.801880   C3684.114990,2049.468506 3684.106934,2051.135254 3684.118408,2052.801758   C3684.130127,2054.468018 3684.059570,2056.143066 3684.200928,2057.799316   C3684.757812,2064.330811 3686.153076,2065.909668 3692.823486,2066.245605   C3699.141357,2066.564453 3705.487305,2066.452393 3711.818359,2066.352783   C3722.511719,2066.184326 3723.534912,2065.069092 3723.715576,2053.960938   C3723.764404,2050.961670 3723.728760,2047.961060 3723.728760,2044.961182   C3723.729492,1901.965454 3723.804932,1758.969482 3723.548340,1615.974243   C3723.532471,1607.133057 3725.830322,1602.320190 3734.372559,1598.620361   C3797.965576,1571.077148 3861.314453,1542.970215 3924.761475,1515.089355   C3927.979248,1513.675293 3931.395752,1512.713989 3936.456055,1510.929443   C3936.456055,1516.828979 3936.455811,1521.061523 3936.455811,1525.293945   C3936.456055,1644.957031 3936.455078,1764.620239 3936.462891,1884.283325   C3936.463135,1887.948730 3936.302002,1891.639893 3936.667725,1895.273682   C3937.282227,1901.381592 3939.362549,1903.307983 3945.559814,1903.823242   C3948.541260,1904.071045 3951.555420,1903.947754 3954.554932,1903.948364   C3986.887207,1903.955444 4019.219727,1903.919067 4051.552002,1903.999756   C4055.389404,1904.009277 4059.225342,1904.645386 4064.114014,1905.085815   C4064.114014,1910.727417 4064.114014,1915.334473 4064.114014,1919.941650   C4064.115234,1997.272705 4064.097656,2074.603760 4064.138428,2151.934814   C4064.144775,2163.874512 4066.411865,2165.975830 4078.092529,2165.634521   C4087.454834,2165.360596 4089.563232,2163.207031 4089.859863,2153.498047   C4089.941406,2150.833740 4089.885498,2148.165039 4089.885498,2145.498535   C4089.886475,2080.500488 4089.872803,2015.502441 4089.917480,1950.504395   C4089.920410,1946.281616 4090.365479,1942.059082 4090.650146,1937.040283   C4095.334717,1936.729492 4099.231445,1936.254395 4103.128906,1936.246948   C4134.794434,1936.185913 4166.460449,1936.201050 4198.125977,1936.217896   C4212.223633,1936.225342 4212.248047,1936.251221 4212.250000,1950.682983   C4212.259277,2022.680786 4212.254395,2094.678711 4212.260742,2166.676514   C4212.260742,2170.009033 4212.112305,2173.361816 4212.417480,2176.669678   C4212.960938,2182.571289 4216.063965,2185.718506 4220.968262,2185.787598   C4226.000000,2185.858398 4228.096680,2183.303223 4228.392578,2176.235352   C4228.587891,2171.576660 4228.459961,2166.904053 4228.460449,2162.237549   C4228.463379,2113.239014 4228.448242,2064.240479 4228.471680,2015.241943   C4228.478027,2001.727539 4228.528809,2001.721436 4241.575195,2001.663696   C4246.241699,2001.642944 4250.908203,2001.659668 4255.574707,2001.659424   C4286.240723,2001.657959 4316.906250,2001.702148 4347.572266,2001.632690   C4359.934570,2001.604736 4361.361816,2000.084106 4361.532715,1987.823730   C4361.569824,1985.157593 4361.542480,1982.490723 4361.542480,1979.824097   C4361.542969,1911.159424 4361.543457,1842.494873 4361.544922,1773.830200   C4361.544922,1770.830322 4361.453125,1767.825073 4361.599121,1764.831787   C4361.969238,1757.237915 4362.736328,1756.526123 4370.525391,1756.161987   C4372.188477,1756.084229 4373.886230,1755.932739 4375.519531,1756.160278   C4384.792480,1757.452759 4391.056152,1754.265015 4393.397461,1744.698120   C4393.864746,1742.789062 4394.904297,1740.997070 4395.821289,1739.224365   C4410.203125,1711.416748 4443.789551,1706.707275 4464.919922,1722.643433   C4473.149902,1728.850708 4478.393555,1737.352173 4482.229492,1746.708618   C4484.771484,1752.907471 4488.496094,1756.714478 4495.708496,1756.219727   C4497.891602,1756.069824 4500.144531,1756.924072 4503.161133,1757.459595   C4503.397461,1762.354980 4503.810059,1766.921631 4503.811523,1771.488281   C4503.845215,1916.484009 4503.836914,2061.479736 4503.848633,2206.475342   C4503.849121,2210.139160 4503.822754,2213.817383 4504.125977,2217.462646   C4504.442383,2221.262451 4506.780273,2223.276123 4510.541016,2223.995605   C4519.788574,2225.764893 4523.721191,2222.775879 4524.028320,2213.451660   C4524.126953,2210.455078 4524.060059,2207.452393 4524.060059,2204.452637   C4524.061035,2072.789795 4524.051270,1941.127075 4524.097656,1809.464233   C4524.099121,1804.625854 4524.643066,1799.787842 4524.914551,1795.281250   C4537.446289,1792.936157 4681.084961,1793.471313 4689.457031,1795.912354   C4689.665527,1800.162720 4690.084473,1804.729004 4690.085449,1809.295410   C4690.120117,1945.291382 4690.113281,2081.287354 4690.113770,2217.283447   C4690.113770,2220.283447 4690.069824,2223.284180 4690.128906,2226.282959   C4690.333008,2236.631348 4691.531738,2238.019287 4701.553711,2238.075684   C4721.552734,2238.188232 4741.552734,2238.197754 4761.551270,2238.062012   C4771.488770,2237.994385 4773.248535,2236.234131 4773.475098,2226.375977   C4773.705078,2216.381104 4773.347168,2206.369873 4773.691895,2196.381104   C4774.087402,2184.913086 4776.888184,2181.733887 4788.075684,2182.153076   C4797.356445,2182.501221 4802.081055,2178.282471 4805.474121,2170.370850   C4809.804199,2160.273926 4814.770020,2150.446045 4819.613770,2140.576660   C4820.526367,2138.717285 4822.148926,2137.206299 4824.081543,2134.712646   C4825.754883,2138.155762 4827.009277,2140.439697 4828.002930,2142.831543   C4832.221191,2152.986328 4836.287598,2163.204590 4840.567383,2173.332764   C4842.428223,2177.737549 4844.955078,2181.146973 4850.497559,2182.003418   C4860.310059,2183.520020 4862.998047,2186.542969 4863.531738,2196.337646   C4864.002441,2204.979980 4863.712891,2213.664307 4863.738770,2222.330078   C4863.780762,2236.743164 4863.773926,2236.743164 4878.078125,2238.203125   C4885.966797,2239.008301 4889.423828,2242.340820 4890.133301,2250.151611   C4890.403809,2253.129639 4890.266113,2256.146973 4890.266602,2259.146484   C4890.274414,2291.145508 4890.240723,2323.144775 4890.290527,2355.143799   C4890.310547,2367.885498 4890.963867,2368.544678 4903.184082,2370.415771   C4904.136719,2370.561768 4905.034668,2371.066650 4906.904785,2371.751221   C4907.161621,2374.632080 4907.646484,2377.849365 4907.697754,2381.073975   C4907.823730,2389.071777 4907.625000,2397.075195 4907.791016,2405.071533   C4907.988281,2414.550293 4909.446777,2416.128906 4919.007812,2416.151367   C4946.671875,2416.216064 4974.335938,2416.065918 5002.000000,2416.000000   C5002.000000,2459.992920 5002.000000,2503.985596 5002.000000,2547.919434   C3335.333252,2547.919434 1668.666626,2547.919434 2.000000,2547.919434   C2.000000,2475.850586 2.000000,2403.862549 2.934597,2330.856934   C38.837624,2329.802979 73.806053,2329.767822 108.774483,2329.730225   C124.184944,2329.713623 124.201004,2329.711426 124.202103,2314.567627   C124.207901,2234.971680 124.150398,2155.375732 124.283585,2075.780029   C124.297966,2067.185303 125.400246,2058.592529 125.997902,2049.998779   C139.799744,2031.773071 153.653778,2013.586304 167.348877,1995.280640   C169.472763,1992.441772 170.869629,1989.058838 173.415482,1985.080566   C181.830643,1975.022339 189.426666,1965.805908 197.039322,1956.603149   C199.505722,1953.621582 202.015594,1950.675659 205.427536,1946.616577   C208.107437,1950.325928 210.181732,1952.788086 211.811646,1955.515869   C229.068542,1984.396240 246.164139,2013.373535 263.541321,2042.181152   C266.782288,2047.553833 268.135132,2052.965088 268.109406,2059.172607   C267.960449,2095.162354 268.036194,2131.152588 268.037201,2167.142822   C268.038513,2213.796631 268.008148,2260.450439 268.068970,2307.104248   C268.082245,2317.290527 268.650238,2317.812012 278.850433,2317.879150   C293.845703,2317.978027 308.842346,2317.858887 323.837708,2317.949951   C327.378998,2317.971191 330.917419,2318.460205 335.159241,2318.788330   C335.423309,2323.228027 335.804626,2326.803223 335.819641,2330.379639   C335.886902,2346.375000 335.846802,2362.370850 335.852448,2378.366455   C335.853607,2381.698730 335.951752,2385.032471 335.885010,2388.363037   C335.796906,2392.757812 337.592804,2395.400879 342.245758,2395.410645   C351.907318,2395.430664 361.569550,2395.446533 371.230377,2395.348633   C375.212616,2395.308350 377.341492,2393.105225 377.482056,2389.100342   C377.575531,2386.437256 377.639954,2383.771729 377.645355,2381.107178   C377.674438,2366.777832 377.528748,2352.446045 377.759613,2338.120117   C377.874725,2330.976318 378.893646,2329.996582 385.980011,2329.832520   C396.638245,2329.585693 407.305878,2329.746094 417.969513,2329.729004   C421.301849,2329.723633 424.642792,2329.852783 427.964661,2329.659668   C434.524292,2329.278076 435.553741,2328.471191 435.686279,2321.974609   C435.924133,2310.315918 435.732880,2298.648682 435.813416,2286.985840   C435.838226,2283.396240 436.164093,2279.808838 436.399567,2275.314453   C441.316833,2274.939697 445.516388,2274.381592 449.720703,2274.343018   C463.715698,2274.214111 477.714844,2274.422119 491.707489,2274.196045   C498.898224,2274.080078 499.577698,2273.120850 500.017487,2266.003662   C500.099609,2264.675049 500.060394,2263.338623 500.060028,2262.005615   C500.044891,2207.354248 500.027771,2152.703125 500.010925,2098.051758   C501.482056,2098.038086 502.953156,2098.024170 505.541809,2098.724854   C525.357361,2109.776123 566.570312,2125.321777 574.927795,2124.773193   C575.165100,2120.667725 575.616577,2116.440430 575.621765,2112.212402   C575.673462,2069.901123 575.760681,2027.589355 575.540466,1985.279297   C575.504822,1978.448120 577.414062,1973.287476 582.393005,1968.511841   C593.205139,1958.141357 603.395020,1947.123901 614.141846,1936.682251   C618.315857,1932.626953 619.889954,1928.226807 619.865051,1922.512695   C619.708191,1886.532227 619.734619,1850.550537 619.843567,1814.569580   C619.859680,1809.250122 618.535400,1805.484009 613.997925,1801.846924   C608.124756,1797.139038 611.023254,1788.185059 618.455322,1786.595459   C621.660339,1785.910034 625.089050,1786.306152 628.411499,1786.125854   C632.621155,1785.897461 636.826172,1785.582275 639.993652,1785.373047   C642.937927,1777.255615 644.890991,1770.160034 648.026367,1763.632446   C652.593933,1754.123047 660.368225,1749.284058 671.332092,1749.645752   C681.981750,1749.997192 692.652344,1749.800049 703.312317,1749.694946   C706.165283,1749.666870 709.012939,1749.094971 712.478943,1748.703125   C712.478943,1744.847290 712.151672,1741.850830 712.536011,1738.948608   C714.134094,1726.880127 721.336243,1719.847046 732.861877,1719.822998   C765.841003,1719.754150 798.820679,1719.986450 831.800171,1720.100342   C842.038574,1726.425659 845.039612,1736.090698 843.741028,1748.577515   C849.813354,1748.776001 855.296326,1749.092163 860.780151,1749.110352   C882.945923,1749.184326 893.460632,1758.598633 896.024109,1780.811157   C896.174011,1782.110107 896.281860,1783.414062 896.488586,1785.525635   C899.028931,1785.684326 901.521484,1785.840088 905.633911,1785.968018   C917.806824,1788.158081 922.303101,1796.475464 915.335938,1802.124023   C910.121765,1806.351562 909.979004,1810.769775 909.978699,1816.065186   C909.971436,1936.061646 909.966003,2056.058105 910.010925,2176.054443   C910.012207,2179.571045 910.563232,2183.087891 910.909424,2187.218018   C923.701355,2188.024658 935.446106,2188.478271 948.359192,2186.843506   C948.359192,2181.460449 948.359192,2177.190186 948.359192,2172.919922   C948.359253,2112.921631 948.359314,2052.923584 948.359375,1992.925293   C948.359375,1912.594360 948.394897,1832.263428 948.271606,1751.932617   C948.264160,1747.061890 947.693176,1741.959473 946.161011,1737.373535   C943.273743,1728.731567 945.307190,1725.174194 954.714417,1724.326660   C958.203491,1724.012207 961.677368,1723.528442 965.434387,1723.089600   C965.893433,1713.829346 966.297485,1705.678589 966.706543,1697.427979   C975.029846,1696.033081 982.130371,1695.187866 989.720276,1698.189331   C990.189209,1706.503296 990.650452,1714.681641 991.094604,1722.555908   C1002.735840,1725.177734 1003.819885,1724.382812 1004.061035,1713.970703   C1004.107300,1711.971802 1004.073242,1709.970947 1004.075500,1707.971069   C1004.089661,1695.304932 1003.948486,1682.635864 1004.181213,1669.973755   C1004.302795,1663.354980 1005.234863,1662.732422 1011.785461,1662.171387   C1015.617188,1661.843140 1019.443604,1661.453369 1024.270508,1660.996826   C1024.270508,1656.323364 1024.268555,1652.709473 1024.270874,1649.095581   C1024.275879,1641.095825 1024.154907,1633.093384 1024.324829,1625.097046   C1024.502808,1616.729004 1025.172119,1616.001953 1033.589355,1615.908936   C1047.587158,1615.754395 1061.588745,1615.777100 1075.587280,1615.892578   C1085.229980,1615.972168 1085.829468,1616.527588 1085.880127,1626.118408   C1085.992920,1647.450684 1085.920532,1668.783691 1085.924805,1690.116455   C1085.926392,1698.116211 1085.832275,1706.117554 1085.959717,1714.115356   C1086.109863,1723.548828 1086.704468,1724.085205 1096.389160,1724.272339   C1101.387207,1724.368774 1106.388550,1724.322876 1111.388306,1724.291138   C1123.660400,1724.213013 1123.722412,1724.087646 1123.927490,1712.178223   C1124.011230,1707.317017 1124.387573,1702.460938 1124.696289,1696.293213   C1132.710449,1696.293213 1139.623413,1696.179321 1146.531006,1696.322144   C1155.083862,1696.498901 1155.590332,1697.066772 1155.904053,1705.412231   C1156.124512,1711.272217 1156.286865,1717.134277 1156.486328,1723.343018   C1161.424194,1723.852905 1165.066040,1723.993408 1168.613403,1724.647095   C1174.870850,1725.799927 1177.948608,1730.264038 1174.875488,1735.374390   C1171.281006,1741.351685 1171.647461,1747.441284 1171.645020,1753.693359   C1171.613281,1837.690796 1171.622925,1921.688354 1171.626465,2005.685791   C1171.626587,2008.685425 1171.717896,2011.685669 1171.681152,2014.684570   C1171.621704,2019.545776 1173.718872,2022.186157 1178.834106,2022.077026   C1182.497925,2021.998901 1186.166016,2022.141357 1189.832031,2022.131348   C1207.085815,2022.084717 1206.058105,2023.290527 1206.058716,2005.796021   C1206.066528,1793.802368 1206.066650,1581.808594 1206.050659,1369.814941   C1206.050171,1362.554077 1206.598755,1355.418091 1201.744995,1348.809204   C1197.294189,1342.749268 1202.480591,1333.395264 1210.252808,1334.133301   C1215.515137,1334.632812 1220.890137,1333.944092 1226.214722,1333.786865   C1235.066895,1334.985596 1241.130859,1331.243530 1245.863037,1323.808472   C1249.531128,1318.045288 1254.257080,1312.955688 1258.512939,1307.566650   C1259.204346,1307.727539 1259.895752,1307.888428 1260.587158,1308.049316   C1260.587158,1316.424561 1260.587158,1324.799927 1260.587158,1333.576782   C1264.908325,1333.576782 1267.827515,1333.576782 1271.632812,1333.576782   C1272.045288,1329.093750 1272.459351,1324.593506 1272.863770,1320.198242   C1280.468262,1318.165649 1387.420166,1317.816895 1397.909302,1319.796509   C1398.441284,1324.186768 1398.989258,1328.707764 1399.579834,1333.581909   C1402.943115,1333.581909 1405.852661,1333.581909 1409.960449,1333.581909   C1409.960449,1319.877441 1409.960449,1306.379639 1409.960449,1292.245605   C1429.920044,1292.245605 1448.685425,1292.245605 1468.731323,1292.245605   C1468.731323,1306.175903 1468.731323,1319.664551 1468.731323,1333.567627   C1474.222656,1333.567627 1478.438477,1333.567627 1483.317871,1333.567627   C1483.806519,1328.842773 1484.270630,1324.355713 1484.799683,1319.239746   C1498.242188,1319.239746 1511.389282,1319.239746 1525.157715,1319.239746   C1525.591309,1323.777222 1525.992554,1327.975464 1526.534668,1333.648804   C1533.984619,1333.791138 1541.488403,1334.367432 1548.938477,1333.959717   C1557.031128,1333.517090 1560.643433,1343.250610 1557.178589,1349.158325   C1556.219604,1350.793335 1554.500366,1352.019897 1553.009033,1353.291870   C1552.065674,1354.096558 1550.898193,1354.638306 1550.047363,1355.164307   C1550.047363,1383.990967 1550.047363,1412.254395 1550.047363,1441.521851   C1553.834106,1441.687866 1557.298340,1441.839722 1562.258423,1442.057251   C1562.407593,1411.889160 1562.310059,1382.366211 1562.326904,1352.845703   C1562.343506,1323.604736 1562.330566,1294.363770 1562.330566,1263.998535   C1571.529663,1263.998535 1579.694824,1263.998535 1589.200562,1263.998535   C1589.200562,1240.439209 1589.200562,1217.962280 1589.200562,1194.224854   C1596.431030,1194.224854 1602.329102,1194.224854 1609.706665,1194.590088   C1615.488770,1196.150024 1617.586792,1194.055420 1617.899536,1190.052368   C1618.210571,1186.074097 1618.135986,1182.062378 1618.153442,1178.064941   C1618.215332,1163.905518 1618.202881,1163.880859 1632.526855,1163.879150   C1706.851562,1163.870117 1781.176392,1163.873779 1855.501099,1163.879028   C1858.166870,1163.879272 1860.832886,1163.979492 1863.498413,1163.964355   C1868.059326,1163.938721 1870.164429,1166.231812 1870.169189,1170.726685   C1870.175293,1176.391846 1870.059448,1182.069092 1870.384766,1187.718750   C1870.742554,1193.933960 1872.124634,1195.233887 1878.192993,1195.771118   C1882.096558,1196.116699 1886.025146,1196.180542 1890.220825,1196.384277   C1892.607178,1203.627197 1891.625000,1210.314819 1891.700317,1216.867554   C1891.849854,1229.864380 1891.611572,1242.866455 1891.840820,1255.861084   C1891.967407,1263.041870 1892.957520,1263.777222 1899.961426,1264.381714   C1903.520264,1264.688843 1907.079590,1264.989014 1911.992432,1265.407837   C1911.992432,1270.046143 1912.050171,1273.947876 1911.983521,1277.847534   C1911.363647,1314.129028 1910.625366,1350.408936 1910.109497,1386.691895   C1909.309204,1442.971924 1908.688110,1499.254395 1907.929077,1555.535034   C1907.439453,1591.828247 1906.852173,1628.120483 1906.284790,1664.412720   C1905.691650,1702.369019 1904.981689,1740.323730 1904.493896,1778.281250   C1904.198975,1801.227661 1904.397339,1824.180420 1904.072144,1847.125977   C1903.628662,1878.415039 1902.884033,1909.699951 1902.305786,1940.987183   C1902.225708,1945.316895 1902.294434,1949.652222 1902.412476,1953.981812   C1902.520996,1957.954956 1904.616211,1960.156860 1908.646362,1960.223389   C1914.310059,1960.317017 1919.982422,1960.503052 1925.638428,1960.298340   C1933.146362,1960.026733 1934.024780,1959.018066 1934.407837,1951.378784   C1934.541138,1948.718628 1934.460327,1946.047241 1934.460449,1943.380981   C1934.462769,1896.719727 1934.434326,1850.058350 1934.511475,1803.397217   C1934.518311,1799.228027 1935.207520,1795.060059 1935.674927,1789.827271   C1940.635498,1789.827271 1944.573486,1789.784424 1948.510498,1789.833862   C1996.463013,1790.435303 2044.415894,1791.021484 2092.367676,1791.679199   C2107.197754,1791.882812 2107.619873,1791.607422 2107.625000,1777.006714   C2107.643066,1724.679443 2107.632080,1672.352173 2107.633057,1620.024902   C2107.633789,1581.696045 2107.773438,1543.366089 2107.511719,1505.039062   C2107.464111,1498.079468 2109.582031,1492.938721 2114.867432,1488.587158   C2121.806396,1482.874268 2128.362549,1476.696899 2135.278809,1470.954956   C2140.578613,1466.555054 2143.103027,1461.933838 2141.327637,1454.494995   C2138.616943,1443.138550 2142.967773,1433.342163 2151.742676,1426.045166   C2166.510254,1413.764282 2183.141357,1413.741089 2200.792480,1418.963013   C2215.520752,1423.320068 2229.460693,1444.118896 2220.838867,1460.607788   C2217.880371,1466.265503 2219.320312,1470.394653 2223.903809,1474.574829   C2233.745117,1483.550415 2243.127686,1493.027222 2252.870361,1502.113892   C2256.664551,1505.652588 2257.788086,1509.598267 2257.203125,1514.663574   C2256.480225,1520.924438 2256.158691,1527.264771 2256.156006,1533.570923   C2256.119141,1624.227051 2256.172119,1714.883179 2256.186768,1805.539307   C2256.190918,1832.202637 2256.171143,1858.865967 2256.112305,1885.529175   C2255.999756,1936.518921 2255.801514,1987.508545 2255.763428,2038.498291   C2255.756836,2047.326782 2256.830811,2048.093506 2265.659180,2048.138672   C2274.832031,2048.185547 2275.705811,2047.325317 2275.908447,2037.841675   C2275.972412,2034.843384 2275.925781,2031.842651 2275.925781,2028.843018   C2275.926025,1902.857544 2275.917236,1776.872192 2275.961182,1650.886719   C2275.962646,1646.358276 2276.478760,1641.830200 2276.833740,1636.010864   C2284.727783,1636.010864 2291.656250,1635.715454 2298.547607,1636.093994   C2305.432129,1636.472290 2310.217041,1634.341431 2314.672119,1628.607788   C2319.903320,1621.875122 2326.240723,1615.637329 2333.163086,1610.668457   C2343.662109,1603.132568 2353.876953,1603.697876 2363.378174,1612.024048   C2368.766846,1616.746216 2373.433350,1622.657227 2377.159424,1628.800293   C2380.356201,1634.070312 2383.912598,1636.353882 2389.954346,1636.091064   C2397.938232,1635.744019 2405.975586,1635.603149 2413.939941,1636.129639   C2420.853271,1636.586304 2425.338379,1633.865479 2428.640381,1628.110840   C2433.444092,1619.739380 2438.318359,1611.403564 2443.399170,1603.199219   C2444.901123,1600.774170 2446.789307,1597.849121 2449.202637,1596.850464   C2462.785400,1591.230469 2479.685547,1599.577148 2483.550049,1613.678833   C2484.771240,1618.134888 2485.170166,1622.840576 2485.682617,1627.461182   C2486.517822,1634.992188 2487.086914,1635.649658 2494.905273,1635.975952   C2498.233398,1636.114868 2501.593018,1635.848999 2504.895508,1636.185303   C2510.497803,1636.755859 2511.661621,1638.853394 2510.300293,1644.125488   C2509.238037,1648.239990 2507.968994,1652.471924 2507.947998,1656.657593   C2507.764648,1693.319214 2507.822510,1729.981934 2507.874756,1766.644409   C2507.879150,1769.840942 2508.355957,1773.036743 2508.631348,1776.456665   C2510.972412,1776.456665 2512.275146,1776.460571 2513.577881,1776.456055   C2539.238525,1776.366455 2564.900146,1776.118164 2590.559326,1776.259033   C2601.767578,1776.320557 2605.380615,1782.041626 2601.926514,1792.617432   C2600.810791,1796.033569 2599.729004,1799.670410 2599.722900,1803.208130   C2599.595703,1877.199463 2599.599121,1951.190796 2599.655029,2025.182251   C2599.662598,2035.076660 2600.356689,2035.647705 2610.753174,2035.722900   C2624.417480,2035.821777 2638.083252,2035.765503 2651.748291,2035.748657   C2666.434570,2035.730469 2666.456055,2035.716553 2666.457764,2020.728882   C2666.466553,1950.070435 2666.501709,1879.411865 2666.402100,1808.753540   C2666.392090,1801.644165 2667.385742,1794.949341 2670.072510,1788.311646   C2688.698242,1742.300171 2707.151123,1696.218628 2725.717529,1650.182983   C2726.400391,1648.489624 2727.684082,1647.038452 2729.707764,1643.885132   C2732.125732,1649.470459 2733.966553,1653.625488 2735.730469,1657.812866   C2753.322021,1699.568481 2770.790771,1741.376343 2788.575928,1783.049438   C2792.176758,1791.486938 2794.144531,1799.856934 2794.111084,1809.110962   C2793.883545,1871.769531 2793.970947,1934.429321 2794.041748,1997.088745   C2794.046631,2001.209595 2794.753906,2005.329590 2795.233643,2010.523071   C2799.420410,2009.508423 2802.323975,2009.100342 2805.008545,2008.102661   C2815.939453,2004.039307 2826.723877,1999.568726 2837.723633,1995.708130   C2843.725342,1993.601807 2846.230469,1989.904419 2845.768066,1983.719116   C2845.544922,1980.736572 2845.744873,1977.722778 2845.744873,1974.723145   C2845.745850,1883.733643 2845.743652,1792.744263 2845.752441,1701.754761   C2845.752686,1698.423096 2845.795410,1695.089111 2845.925049,1691.760376   C2846.063232,1688.196899 2847.981934,1686.259033 2851.564941,1686.126099   C2854.561035,1686.014893 2857.560791,1685.961426 2860.559082,1685.960327   C2891.888672,1685.948730 2923.218506,1685.957764 2954.548096,1685.945068   C2957.546143,1685.943848 2960.547363,1685.896973 2963.541748,1685.760010   C2967.512939,1685.578247 2969.657227,1683.414551 2969.813232,1679.453979   C2969.957275,1675.792725 2970.000244,1672.125366 2970.000488,1668.460693   C2970.009521,1532.143188 2969.999023,1395.825562 2970.047607,1259.508057   C2970.049316,1254.684814 2970.622070,1249.861694 2970.922363,1245.138062   C2973.838867,1244.653687 2975.456299,1244.235596 2977.093506,1244.136963   C2990.703369,1243.315430 2990.693115,1243.331177 2993.024170,1230.653809   C2993.131348,1230.071655 2993.769531,1229.587158 2994.164307,1229.060181   C3009.883545,1225.968140 3009.883789,1225.968140 3009.886963,1208.822876   C3009.887695,1206.156494 3009.817139,1203.488037 3009.902344,1200.824341   C3010.059082,1195.927856 3010.306885,1191.034302 3010.502197,1186.477539   C3020.140869,1183.655762 3092.327881,1183.716553 3101.118408,1186.421265   C3101.420410,1188.451416 3102.008789,1190.694580 3102.043701,1192.946411   C3102.172852,1201.276855 3101.981934,1209.613403 3102.172852,1217.941650   C3102.367188,1226.437134 3103.500977,1227.384399 3112.204102,1227.872803   C3115.748291,1228.071777 3119.282715,1228.441406 3122.962402,1228.744995   C3123.749512,1233.860718 3124.393799,1238.046997 3125.126465,1242.808105   C3133.832031,1243.326294 3135.165039,1248.971680 3134.492920,1256.059692   C3134.242432,1258.702271 3134.455322,1261.388550 3134.455322,1264.054932   C3134.455322,1372.375732 3134.452881,1480.696533 3134.465820,1589.017334   C3134.466309,1592.680664 3134.480225,1596.354248 3134.746338,1600.004272   C3135.026855,1603.852417 3137.160889,1606.207520 3141.162598,1606.228027   C3155.157715,1606.299805 3169.153564,1606.303589 3183.148926,1606.274048   C3187.659668,1606.264648 3189.783203,1603.775024 3189.828369,1599.359741   C3189.855469,1596.693970 3189.920410,1594.028198 3189.921143,1591.362427   C3189.928467,1563.365723 3189.898682,1535.368896 3189.958252,1507.372314   C3189.966553,1503.480957 3190.403076,1499.590576 3190.677734,1495.102905   C3194.375000,1494.717407 3197.266846,1494.343262 3200.170654,1494.126831   C3208.482422,1493.507446 3209.384033,1492.875732 3209.541016,1484.692261   C3209.771240,1472.697876 3209.618408,1460.696411 3209.634033,1448.697876   C3209.648438,1437.699341 3209.486816,1426.696167 3209.757324,1415.703857   C3209.916260,1409.245850 3211.030273,1408.301392 3217.504150,1407.973145   C3222.491455,1407.719971 3227.500244,1407.907471 3232.499512,1407.873779   C3245.336182,1407.787476 3248.131104,1409.573242 3247.837158,1393.206665   C3247.685059,1384.737061 3248.636230,1384.092651 3256.970459,1383.880005   C3264.298584,1383.692993 3271.634033,1383.780396 3278.966064,1383.755859   C3283.150879,1383.741943 3285.644775,1382.231689 3286.430176,1377.583252   C3288.709717,1364.094727 3288.878174,1364.123901 3302.207031,1363.991577   C3303.873291,1363.975098 3305.562500,1364.114014 3307.201904,1363.892212   C3312.020752,1363.240845 3316.820312,1362.443970 3321.627441,1361.703979  z"/>
<path fill="#A6CAEE" opacity="1.000000" stroke="none" d=" M5002.000000,2415.062744   C4974.335938,2416.065918 4946.671875,2416.216064 4919.007812,2416.151367   C4909.446777,2416.128906 4907.988281,2414.550293 4907.791016,2405.071533   C4907.625000,2397.075195 4907.823730,2389.071777 4907.697754,2381.073975   C4907.646484,2377.849365 4907.161621,2374.632080 4906.904785,2371.751221   C4905.034668,2371.066650 4904.136719,2370.561768 4903.184082,2370.415771   C4890.963867,2368.544678 4890.310547,2367.885498 4890.290527,2355.143799   C4890.240723,2323.144775 4890.274414,2291.145508 4890.266602,2259.146484   C4890.266113,2256.146973 4890.403809,2253.129639 4890.133301,2250.151611   C4889.423828,2242.340820 4885.966797,2239.008301 4878.078125,2238.203125   C4863.773926,2236.743164 4863.780762,2236.743164 4863.738770,2222.330078   C4863.712891,2213.664307 4864.002441,2204.979980 4863.531738,2196.337646   C4862.998047,2186.542969 4860.310059,2183.520020 4850.497559,2182.003418   C4844.955078,2181.146973 4842.428223,2177.737549 4840.567383,2173.332764   C4836.287598,2163.204590 4832.221191,2152.986328 4828.002930,2142.831543   C4827.009277,2140.439697 4825.754883,2138.155762 4824.081543,2134.712646   C4822.148926,2137.206299 4820.526367,2138.717285 4819.613770,2140.576660   C4814.770020,2150.446045 4809.804199,2160.273926 4805.474121,2170.370850   C4802.081055,2178.282471 4797.356445,2182.501221 4788.075684,2182.153076   C4776.888184,2181.733887 4774.087402,2184.913086 4773.691895,2196.381104   C4773.347168,2206.369873 4773.705078,2216.381104 4773.475098,2226.375977   C4773.248535,2236.234131 4771.488770,2237.994385 4761.551270,2238.062012   C4741.552734,2238.197754 4721.552734,2238.188232 4701.553711,2238.075684   C4691.531738,2238.019287 4690.333008,2236.631348 4690.128906,2226.282959   C4690.069824,2223.284180 4690.113770,2220.283447 4690.113770,2217.283447   C4690.113281,2081.287354 4690.120117,1945.291382 4690.085449,1809.295410   C4690.084473,1804.729004 4689.665527,1800.162720 4689.457031,1795.912354   C4681.084961,1793.471313 4537.446289,1792.936157 4524.914551,1795.281250   C4524.643066,1799.787842 4524.099121,1804.625854 4524.097656,1809.464233   C4524.051270,1941.127075 4524.061035,2072.789795 4524.060059,2204.452637   C4524.060059,2207.452393 4524.126953,2210.455078 4524.028320,2213.451660   C4523.721191,2222.775879 4519.788574,2225.764893 4510.541016,2223.995605   C4506.780273,2223.276123 4504.442383,2221.262451 4504.125977,2217.462646   C4503.822754,2213.817383 4503.849121,2210.139160 4503.848633,2206.475342   C4503.836914,2061.479736 4503.845215,1916.484009 4503.811523,1771.488281   C4503.810059,1766.921631 4503.397461,1762.354980 4503.161133,1757.459595   C4500.144531,1756.924072 4497.891602,1756.069824 4495.708496,1756.219727   C4488.496094,1756.714478 4484.771484,1752.907471 4482.229492,1746.708618   C4478.393555,1737.352173 4473.149902,1728.850708 4464.919922,1722.643433   C4443.789551,1706.707275 4410.203125,1711.416748 4395.821289,1739.224365   C4394.904297,1740.997070 4393.864746,1742.789062 4393.397461,1744.698120   C4391.056152,1754.265015 4384.792480,1757.452759 4375.519531,1756.160278   C4373.886230,1755.932739 4372.188477,1756.084229 4370.525391,1756.161987   C4362.736328,1756.526123 4361.969238,1757.237915 4361.599121,1764.831787   C4361.453125,1767.825073 4361.544922,1770.830322 4361.544922,1773.830200   C4361.543457,1842.494873 4361.542969,1911.159424 4361.542480,1979.824097   C4361.542480,1982.490723 4361.569824,1985.157593 4361.532715,1987.823730   C4361.361816,2000.084106 4359.934570,2001.604736 4347.572266,2001.632690   C4316.906250,2001.702148 4286.240723,2001.657959 4255.574707,2001.659424   C4250.908203,2001.659668 4246.241699,2001.642944 4241.575195,2001.663696   C4228.528809,2001.721436 4228.478027,2001.727539 4228.471680,2015.241943   C4228.448242,2064.240479 4228.463379,2113.239014 4228.460449,2162.237549   C4228.459961,2166.904053 4228.587891,2171.576660 4228.392578,2176.235352   C4228.096680,2183.303223 4226.000000,2185.858398 4220.968262,2185.787598   C4216.063965,2185.718506 4212.960938,2182.571289 4212.417480,2176.669678   C4212.112305,2173.361816 4212.260742,2170.009033 4212.260742,2166.676514   C4212.254395,2094.678711 4212.259277,2022.680786 4212.250000,1950.682983   C4212.248047,1936.251221 4212.223633,1936.225342 4198.125977,1936.217896   C4166.460449,1936.201050 4134.794434,1936.185913 4103.128906,1936.246948   C4099.231445,1936.254395 4095.334717,1936.729492 4090.650146,1937.040283   C4090.365479,1942.059082 4089.920410,1946.281616 4089.917480,1950.504395   C4089.872803,2015.502441 4089.886475,2080.500488 4089.885498,2145.498535   C4089.885498,2148.165039 4089.941406,2150.833740 4089.859863,2153.498047   C4089.563232,2163.207031 4087.454834,2165.360596 4078.092529,2165.634521   C4066.411865,2165.975830 4064.144775,2163.874512 4064.138428,2151.934814   C4064.097656,2074.603760 4064.115234,1997.272705 4064.114014,1919.941650   C4064.114014,1915.334473 4064.114014,1910.727417 4064.114014,1905.085815   C4059.225342,1904.645386 4055.389404,1904.009277 4051.552002,1903.999756   C4019.219727,1903.919067 3986.887207,1903.955444 3954.554932,1903.948364   C3951.555420,1903.947754 3948.541260,1904.071045 3945.559814,1903.823242   C3939.362549,1903.307983 3937.282227,1901.381592 3936.667725,1895.273682   C3936.302002,1891.639893 3936.463135,1887.948730 3936.462891,1884.283325   C3936.455078,1764.620239 3936.456055,1644.957031 3936.455811,1525.293945   C3936.455811,1521.061523 3936.456055,1516.828979 3936.456055,1510.929443   C3931.395752,1512.713989 3927.979248,1513.675293 3924.761475,1515.089355   C3861.314453,1542.970215 3797.965576,1571.077148 3734.372559,1598.620361   C3725.830322,1602.320190 3723.532471,1607.133057 3723.548340,1615.974243   C3723.804932,1758.969482 3723.729492,1901.965454 3723.728760,2044.961182   C3723.728760,2047.961060 3723.764404,2050.961670 3723.715576,2053.960938   C3723.534912,2065.069092 3722.511719,2066.184326 3711.818359,2066.352783   C3705.487305,2066.452393 3699.141357,2066.564453 3692.823486,2066.245605   C3686.153076,2065.909668 3684.757812,2064.330811 3684.200928,2057.799316   C3684.059570,2056.143066 3684.130127,2054.468018 3684.118408,2052.801758   C3684.106934,2051.135254 3684.114990,2049.468506 3684.113525,2047.801880   C3683.976562,1878.809937 3683.834961,1709.817871 3683.711182,1540.825928   C3683.698975,1523.980225 3683.973877,1525.916992 3669.371826,1522.329102   C3621.173340,1510.485474 3572.928711,1498.830200 3524.694336,1487.132202   C3521.217285,1486.288818 3517.681885,1485.685181 3512.760498,1484.682129   C3512.529785,1489.910767 3512.186279,1494.081787 3512.184814,1498.252686   C3512.153809,1586.916748 3512.161377,1675.580811 3512.161133,1764.244873   C3512.160889,1808.910156 3512.162598,1853.575562 3512.157715,1898.240845   C3512.157471,1901.240356 3512.288818,1904.254517 3512.047119,1907.236572   C3511.530273,1913.625122 3509.759033,1915.591064 3503.515869,1915.975220   C3498.203857,1916.302246 3492.838135,1916.304199 3487.527588,1915.960815   C3481.175781,1915.549927 3478.538818,1913.078247 3478.461182,1906.436401   C3478.251465,1888.444336 3478.416992,1870.445557 3478.630615,1852.451904   C3478.705566,1846.143066 3479.686035,1839.841064 3479.691162,1833.535645   C3479.764404,1742.871704 3479.724609,1652.207642 3479.750244,1561.543701   C3479.759033,1530.212036 3479.897217,1498.880249 3479.906982,1467.548584   C3479.908447,1463.656860 3479.484375,1459.764771 3479.210205,1455.058838   C3474.174805,1454.760986 3469.955322,1454.420044 3465.729004,1454.287598   C3461.732666,1454.162354 3457.728760,1454.320068 3453.730225,1454.240601   C3443.182861,1454.031128 3441.916504,1452.738892 3441.764893,1441.819092   C3441.672119,1435.153809 3441.804199,1428.485596 3441.712891,1421.820312   C3441.667969,1418.550293 3441.343750,1415.284058 3441.114746,1411.502686   C3424.345459,1410.026489 3432.409668,1396.321045 3428.516602,1387.000122   C3425.888428,1386.687988 3422.734375,1386.184814 3419.560547,1385.960815   C3410.085205,1385.292114 3408.717773,1384.022949 3407.828369,1374.834961   C3407.607666,1372.557007 3407.225830,1370.294678 3406.899658,1367.888062   C3400.302246,1364.756592 3393.526611,1366.092041 3387.047852,1366.277588   C3379.229004,1366.501587 3374.815430,1363.248169 3371.637939,1356.300903   C3366.098877,1344.190430 3359.805664,1332.426392 3353.959473,1320.453125   C3352.821777,1318.122314 3352.282471,1315.499390 3351.746826,1312.499023   C3352.648438,1307.804810 3353.807617,1303.623535 3353.813477,1299.440552   C3353.921875,1221.117676 3353.893066,1142.794678 3353.893311,1064.471680   C3353.893311,1060.213745 3353.893555,1055.955688 3353.893555,1051.695190   C3361.341553,1048.658691 3368.053467,1050.215088 3374.567383,1049.855225   C3382.936523,1049.392944 3383.547852,1049.045410 3383.651367,1040.472412   C3383.804443,1027.809204 3383.659424,1015.142700 3383.729736,1002.478088   C3383.749512,998.896484 3384.076904,995.316589 3384.332520,990.404724   C3396.887451,990.404724 3408.697266,990.404724 3421.629395,990.404724   C3423.214355,964.294373 3421.455566,939.406738 3422.750244,913.604309   C3426.383057,913.198303 3429.562744,912.537476 3432.743164,912.533386   C3483.403076,912.467651 3534.063232,912.456482 3584.723145,912.509277   C3594.995605,912.519958 3595.352783,912.933960 3595.427490,923.270386   C3595.574219,943.585999 3595.600830,963.902466 3595.720947,984.218323   C3595.728760,985.523254 3596.105713,986.825989 3596.499023,989.327026   C3602.158203,989.820923 3607.963623,990.327576 3615.230957,990.961853   C3616.959961,1009.973267 3614.995605,1029.181396 3616.398926,1048.599365   C3620.896973,1049.411011 3624.710205,1050.099121 3629.872070,1051.030640   C3630.346191,1067.605835 3630.041504,1084.166016 3630.094727,1100.711304   C3630.149658,1117.708862 3630.106689,1134.706787 3630.106689,1151.704468   C3630.106689,1168.288818 3630.106689,1184.873169 3630.106689,1202.255615   C3634.371094,1202.255615 3637.421875,1202.255615 3641.848145,1202.255615   C3641.848145,1151.575195 3641.848145,1101.504517 3641.848145,1051.183350   C3646.613281,1050.246826 3650.116455,1049.558350 3653.787354,1048.836914   C3657.123535,1042.441895 3655.434326,1035.736328 3655.380371,1029.203369   C3655.207275,1008.225952 3654.892334,987.249329 3654.819580,966.271790   C3654.808105,963.001343 3655.776855,959.727478 3656.459961,955.391296   C3660.732178,955.082214 3664.892822,954.525024 3669.053711,954.519348   C3715.047607,954.456726 3761.041504,954.479736 3807.035400,954.479614   C3811.308838,954.479553 3815.582520,954.479614 3820.641846,954.479614   C3821.356201,947.297180 3821.963379,941.189758 3822.634277,934.444519   C3837.412598,932.741882 3851.539795,934.149597 3866.447998,934.377808   C3867.105225,940.975281 3867.685303,946.798584 3868.362549,953.598755   C3872.190918,953.907471 3875.722168,954.416260 3879.256348,954.438171   C3894.253906,954.531250 3909.252197,954.438171 3924.249756,954.511597   C3927.825684,954.529053 3931.399414,954.926941 3935.466797,955.180603   C3936.152100,962.880737 3937.277100,969.780273 3937.278809,976.679993   C3937.282471,993.657104 3936.581787,1010.633606 3936.519287,1027.611694   C3936.461426,1043.257324 3936.850098,1058.904785 3937.075928,1074.551025   C3937.143066,1079.212646 3937.433838,1083.872803 3937.434570,1088.533569   C3937.455322,1207.851074 3937.450928,1327.168701 3937.451172,1446.486206   C3937.451172,1451.071899 3937.451416,1455.657471 3937.451416,1459.829956   C3945.860107,1462.415649 4013.949463,1463.132446 4029.444580,1461.000732   C4029.793701,1457.171753 4030.492432,1453.038330 4030.499023,1448.903687   C4030.575684,1400.243652 4030.548584,1351.583374 4030.548828,1302.923218   C4030.549072,1233.932373 4030.538086,1164.941406 4030.575928,1095.950562   C4030.578369,1091.690918 4030.967041,1087.431519 4031.231689,1082.040161   C4041.982178,1081.579712 4052.086914,1081.146973 4063.128662,1080.674072   C4063.635498,1071.823975 4064.099609,1063.719482 4064.629395,1054.468262   C4073.541748,1054.468262 4081.727051,1054.468262 4090.509277,1054.468262   C4091.428223,1049.277466 4092.155518,1045.168579 4093.038086,1040.183838   C4097.067383,1039.898071 4100.943848,1039.398560 4104.822754,1039.385254   C4127.153320,1039.308594 4149.485352,1039.516724 4171.812988,1039.274902   C4183.098633,1039.152710 4194.375977,1038.286987 4206.739746,1037.706543   C4207.309082,1032.319092 4207.851562,1027.183960 4208.531738,1020.741943   C4221.695801,1019.375000 4234.820801,1020.157410 4249.041992,1020.297729   C4249.661621,1025.918579 4250.226074,1031.042236 4250.910645,1037.251465   C4278.241211,1040.255127 4305.540039,1039.716797 4333.251953,1038.705322   C4333.844238,1032.219849 4334.320801,1027.003174 4334.924316,1020.400513   C4351.660645,1019.712952 4368.087891,1020.038696 4385.275391,1020.317871   C4385.958496,1026.645508 4386.548340,1032.110107 4387.229492,1038.419434   C4394.015137,1039.024658 4400.479004,1039.601074 4407.289062,1040.208374   C4408.198730,1044.918579 4408.996094,1049.048950 4409.823242,1053.333252   C4413.418945,1053.932129 4416.661621,1054.472168 4420.973145,1055.190308   C4421.429688,1063.271240 4421.889160,1071.404419 4422.380859,1080.101074   C4428.049805,1080.900513 4433.208008,1081.627686 4439.595215,1082.528320   C4440.250488,1104.985962 4439.818359,1127.219116 4439.895996,1149.437012   C4439.973633,1171.767212 4439.913086,1194.097778 4439.913086,1216.428223   C4439.913086,1238.758545 4439.913086,1261.088989 4439.913086,1283.419312   C4439.913086,1306.083008 4439.913086,1328.746582 4439.913086,1351.410278   C4439.913086,1373.740723 4439.913086,1396.071045 4439.913086,1418.401489   C4439.913086,1440.731812 4439.913086,1463.062256 4439.913086,1485.392578   C4439.913086,1507.618896 4439.913086,1529.845215 4439.913086,1552.827393   C4444.488281,1553.166016 4447.717285,1553.570801 4450.950195,1553.611572   C4458.947754,1553.712402 4466.947266,1553.634644 4474.946289,1553.649414   C4545.267090,1553.779785 4615.587891,1553.913696 4685.908691,1554.051392   C4688.241211,1554.056030 4690.591797,1553.939331 4692.902832,1554.177246   C4700.339844,1554.942505 4702.305176,1556.751831 4702.192383,1564.231079   C4702.042969,1574.179199 4701.290039,1584.118164 4700.729492,1595.411377   C4711.994629,1596.724731 4723.208496,1595.857422 4734.349609,1596.012817   C4745.632324,1596.170044 4756.919434,1596.047363 4769.322754,1596.047363   C4769.686523,1601.411377 4770.255859,1605.903198 4770.257812,1610.395264   C4770.308105,1712.715088 4770.287598,1815.034912 4770.323730,1917.354736   C4770.325684,1921.919312 4770.733887,1926.483765 4770.983398,1931.689819   C4780.653320,1931.689819 4789.413086,1931.689819 4799.032227,1931.689819   C4799.283691,1927.391479 4799.671387,1923.823242 4799.674805,1920.254761   C4799.715820,1875.593994 4799.717773,1830.933228 4799.670410,1786.272461   C4799.666504,1782.622559 4799.271484,1778.969849 4798.982422,1775.324341   C4798.394043,1767.926758 4799.348633,1766.838379 4807.175293,1766.520386   C4810.169922,1766.398560 4813.173340,1766.483276 4816.172852,1766.480347   C4877.496582,1766.420654 4938.820801,1766.361816 5001.072266,1766.151367   C5002.000000,1982.041870 5002.000000,2198.083740 5002.000000,2415.062744  z"/>
<path fill="#A6CAEE" opacity="1.000000" stroke="none" d=" M125.429276,2050.556152   C125.400246,2058.592529 124.297966,2067.185303 124.283585,2075.780029   C124.150398,2155.375732 124.207901,2234.971680 124.202103,2314.567627   C124.201004,2329.711426 124.184944,2329.713623 108.774483,2329.730225   C73.806053,2329.767822 38.837624,2329.802979 2.934597,2329.919434   C2.000000,2108.625000 2.000000,1887.249756 2.000000,1664.937256   C24.223698,1664.154663 46.447395,1664.309448 69.564690,1664.470337   C69.843613,1670.070068 70.265884,1674.616211 70.267662,1679.162476   C70.305702,1776.446777 70.296631,1873.731201 70.296692,1971.015503   C70.296700,1975.592773 70.296700,1980.169922 70.296700,1985.713745   C79.728477,1986.203369 87.874207,1986.626221 97.227783,1987.111694   C99.059837,2009.237305 96.820686,2031.091797 98.553345,2053.741455   C106.945068,2053.741455 114.478149,2053.836182 122.002663,2053.625000   C122.978050,2053.597656 123.909081,2051.989502 125.429276,2050.556152  z"/>
<path fill="#A6CAEE" opacity="1.000000" stroke="none" d=" M3320.764648,1361.740234   C3316.820312,1362.443970 3312.020752,1363.240845 3307.201904,1363.892212   C3305.562500,1364.114014 3303.873291,1363.975098 3302.207031,1363.991577   C3288.878174,1364.123901 3288.709717,1364.094727 3286.430176,1377.583252   C3285.644775,1382.231689 3283.150879,1383.741943 3278.966064,1383.755859   C3271.634033,1383.780396 3264.298584,1383.692993 3256.970459,1383.880005   C3248.636230,1384.092651 3247.685059,1384.737061 3247.837158,1393.206665   C3248.131104,1409.573242 3245.336182,1407.787476 3232.499512,1407.873779   C3227.500244,1407.907471 3222.491455,1407.719971 3217.504150,1407.973145   C3211.030273,1408.301392 3209.916260,1409.245850 3209.757324,1415.703857   C3209.486816,1426.696167 3209.648438,1437.699341 3209.634033,1448.697876   C3209.618408,1460.696411 3209.771240,1472.697876 3209.541016,1484.692261   C3209.384033,1492.875732 3208.482422,1493.507446 3200.170654,1494.126831   C3197.266846,1494.343262 3194.375000,1494.717407 3190.677734,1495.102905   C3190.403076,1499.590576 3189.966553,1503.480957 3189.958252,1507.372314   C3189.898682,1535.368896 3189.928467,1563.365723 3189.921143,1591.362427   C3189.920410,1594.028198 3189.855469,1596.693970 3189.828369,1599.359741   C3189.783203,1603.775024 3187.659668,1606.264648 3183.148926,1606.274048   C3169.153564,1606.303589 3155.157715,1606.299805 3141.162598,1606.228027   C3137.160889,1606.207520 3135.026855,1603.852417 3134.746338,1600.004272   C3134.480225,1596.354248 3134.466309,1592.680664 3134.465820,1589.017334   C3134.452881,1480.696533 3134.455322,1372.375732 3134.455322,1264.054932   C3134.455322,1261.388550 3134.242432,1258.702271 3134.492920,1256.059692   C3135.165039,1248.971680 3133.832031,1243.326294 3125.126465,1242.808105   C3124.393799,1238.046997 3123.749512,1233.860718 3122.962402,1228.744995   C3119.282715,1228.441406 3115.748291,1228.071777 3112.204102,1227.872803   C3103.500977,1227.384399 3102.367188,1226.437134 3102.172852,1217.941650   C3101.981934,1209.613403 3102.172852,1201.276855 3102.043701,1192.946411   C3102.008789,1190.694580 3101.420410,1188.451416 3101.118408,1186.421265   C3092.327881,1183.716553 3020.140869,1183.655762 3010.502197,1186.477539   C3010.306885,1191.034302 3010.059082,1195.927856 3009.902344,1200.824341   C3009.817139,1203.488037 3009.887695,1206.156494 3009.886963,1208.822876   C3009.883789,1225.968140 3009.883545,1225.968140 2994.164307,1229.060181   C2993.769531,1229.587158 2993.131348,1230.071655 2993.024170,1230.653809   C2990.693115,1243.331177 2990.703369,1243.315430 2977.093506,1244.136963   C2975.456299,1244.235596 2973.838867,1244.653687 2970.922363,1245.138062   C2970.622070,1249.861694 2970.049316,1254.684814 2970.047607,1259.508057   C2969.999023,1395.825562 2970.009521,1532.143188 2970.000488,1668.460693   C2970.000244,1672.125366 2969.957275,1675.792725 2969.813232,1679.453979   C2969.657227,1683.414551 2967.512939,1685.578247 2963.541748,1685.760010   C2960.547363,1685.896973 2957.546143,1685.943848 2954.548096,1685.945068   C2923.218506,1685.957764 2891.888672,1685.948730 2860.559082,1685.960327   C2857.560791,1685.961426 2854.561035,1686.014893 2851.564941,1686.126099   C2847.981934,1686.259033 2846.063232,1688.196899 2845.925049,1691.760376   C2845.795410,1695.089111 2845.752686,1698.423096 2845.752441,1701.754761   C2845.743652,1792.744263 2845.745850,1883.733643 2845.744873,1974.723145   C2845.744873,1977.722778 2845.544922,1980.736572 2845.768066,1983.719116   C2846.230469,1989.904419 2843.725342,1993.601807 2837.723633,1995.708130   C2826.723877,1999.568726 2815.939453,2004.039307 2805.008545,2008.102661   C2802.323975,2009.100342 2799.420410,2009.508423 2795.233643,2010.523071   C2794.753906,2005.329590 2794.046631,2001.209595 2794.041748,1997.088745   C2793.970947,1934.429321 2793.883545,1871.769531 2794.111084,1809.110962   C2794.144531,1799.856934 2792.176758,1791.486938 2788.575928,1783.049438   C2770.790771,1741.376343 2753.322021,1699.568481 2735.730469,1657.812866   C2733.966553,1653.625488 2732.125732,1649.470459 2729.707764,1643.885132   C2727.684082,1647.038452 2726.400391,1648.489624 2725.717529,1650.182983   C2707.151123,1696.218628 2688.698242,1742.300171 2670.072510,1788.311646   C2667.385742,1794.949341 2666.392090,1801.644165 2666.402100,1808.753540   C2666.501709,1879.411865 2666.466553,1950.070435 2666.457764,2020.728882   C2666.456055,2035.716553 2666.434570,2035.730469 2651.748291,2035.748657   C2638.083252,2035.765503 2624.417480,2035.821777 2610.753174,2035.722900   C2600.356689,2035.647705 2599.662598,2035.076660 2599.655029,2025.182251   C2599.599121,1951.190796 2599.595703,1877.199463 2599.722900,1803.208130   C2599.729004,1799.670410 2600.810791,1796.033569 2601.926514,1792.617432   C2605.380615,1782.041626 2601.767578,1776.320557 2590.559326,1776.259033   C2564.900146,1776.118164 2539.238525,1776.366455 2513.577881,1776.456055   C2512.275146,1776.460571 2510.972412,1776.456665 2508.631348,1776.456665   C2508.355957,1773.036743 2507.879150,1769.840942 2507.874756,1766.644409   C2507.822510,1729.981934 2507.764648,1693.319214 2507.947998,1656.657593   C2507.968994,1652.471924 2509.238037,1648.239990 2510.300293,1644.125488   C2511.661621,1638.853394 2510.497803,1636.755859 2504.895508,1636.185303   C2501.593018,1635.848999 2498.233398,1636.114868 2494.905273,1635.975952   C2487.086914,1635.649658 2486.517822,1634.992188 2485.682617,1627.461182   C2485.170166,1622.840576 2484.771240,1618.134888 2483.550049,1613.678833   C2479.685547,1599.577148 2462.785400,1591.230469 2449.202637,1596.850464   C2446.789307,1597.849121 2444.901123,1600.774170 2443.399170,1603.199219   C2438.318359,1611.403564 2433.444092,1619.739380 2428.640381,1628.110840   C2425.338379,1633.865479 2420.853271,1636.586304 2413.939941,1636.129639   C2405.975586,1635.603149 2397.938232,1635.744019 2389.954346,1636.091064   C2383.912598,1636.353882 2380.356201,1634.070312 2377.159424,1628.800293   C2373.433350,1622.657227 2368.766846,1616.746216 2363.378174,1612.024048   C2353.876953,1603.697876 2343.662109,1603.132568 2333.163086,1610.668457   C2326.240723,1615.637329 2319.903320,1621.875122 2314.672119,1628.607788   C2310.217041,1634.341431 2305.432129,1636.472290 2298.547607,1636.093994   C2291.656250,1635.715454 2284.727783,1636.010864 2276.833740,1636.010864   C2276.478760,1641.830200 2275.962646,1646.358276 2275.961182,1650.886719   C2275.917236,1776.872192 2275.926025,1902.857544 2275.925781,2028.843018   C2275.925781,2031.842651 2275.972412,2034.843384 2275.908447,2037.841675   C2275.705811,2047.325317 2274.832031,2048.185547 2265.659180,2048.138672   C2256.830811,2048.093506 2255.756836,2047.326782 2255.763428,2038.498291   C2255.801514,1987.508545 2255.999756,1936.518921 2256.112305,1885.529175   C2256.171143,1858.865967 2256.190918,1832.202637 2256.186768,1805.539307   C2256.172119,1714.883179 2256.119141,1624.227051 2256.156006,1533.570923   C2256.158691,1527.264771 2256.480225,1520.924438 2257.203125,1514.663574   C2257.788086,1509.598267 2256.664551,1505.652588 2252.870361,1502.113892   C2243.127686,1493.027222 2233.745117,1483.550415 2223.903809,1474.574829   C2219.320312,1470.394653 2217.880371,1466.265503 2220.838867,1460.607788   C2229.460693,1444.118896 2215.520752,1423.320068 2200.792480,1418.963013   C2183.141357,1413.741089 2166.510254,1413.764282 2151.742676,1426.045166   C2142.967773,1433.342163 2138.616943,1443.138550 2141.327637,1454.494995   C2143.103027,1461.933838 2140.578613,1466.555054 2135.278809,1470.954956   C2128.362549,1476.696899 2121.806396,1482.874268 2114.867432,1488.587158   C2109.582031,1492.938721 2107.464111,1498.079468 2107.511719,1505.039062   C2107.773438,1543.366089 2107.633789,1581.696045 2107.633057,1620.024902   C2107.632080,1672.352173 2107.643066,1724.679443 2107.625000,1777.006714   C2107.619873,1791.607422 2107.197754,1791.882812 2092.367676,1791.679199   C2044.415894,1791.021484 1996.463013,1790.435303 1948.510498,1789.833862   C1944.573486,1789.784424 1940.635498,1789.827271 1935.674927,1789.827271   C1935.207520,1795.060059 1934.518311,1799.228027 1934.511475,1803.397217   C1934.434326,1850.058350 1934.462769,1896.719727 1934.460449,1943.380981   C1934.460327,1946.047241 1934.541138,1948.718628 1934.407837,1951.378784   C1934.024780,1959.018066 1933.146362,1960.026733 1925.638428,1960.298340   C1919.982422,1960.503052 1914.310059,1960.317017 1908.646362,1960.223389   C1904.616211,1960.156860 1902.520996,1957.954956 1902.412476,1953.981812   C1902.294434,1949.652222 1902.225708,1945.316895 1902.305786,1940.987183   C1902.884033,1909.699951 1903.628662,1878.415039 1904.072144,1847.125977   C1904.397339,1824.180420 1904.198975,1801.227661 1904.493896,1778.281250   C1904.981689,1740.323730 1905.691650,1702.369019 1906.284790,1664.412720   C1906.852173,1628.120483 1907.439453,1591.828247 1907.929077,1555.535034   C1908.688110,1499.254395 1909.309204,1442.971924 1910.109497,1386.691895   C1910.625366,1350.408936 1911.363647,1314.129028 1911.983521,1277.847534   C1912.050171,1273.947876 1911.992432,1270.046143 1911.992432,1265.407837   C1907.079590,1264.989014 1903.520264,1264.688843 1899.961426,1264.381714   C1892.957520,1263.777222 1891.967407,1263.041870 1891.840820,1255.861084   C1891.611572,1242.866455 1891.849854,1229.864380 1891.700317,1216.867554   C1891.625000,1210.314819 1892.607178,1203.627197 1890.220825,1196.384277   C1886.025146,1196.180542 1882.096558,1196.116699 1878.192993,1195.771118   C1872.124634,1195.233887 1870.742554,1193.933960 1870.384766,1187.718750   C1870.059448,1182.069092 1870.175293,1176.391846 1870.169189,1170.726685   C1870.164429,1166.231812 1868.059326,1163.938721 1863.498413,1163.964355   C1860.832886,1163.979492 1858.166870,1163.879272 1855.501099,1163.879028   C1781.176392,1163.873779 1706.851562,1163.870117 1632.526855,1163.879150   C1618.202881,1163.880859 1618.215332,1163.905518 1618.153442,1178.064941   C1618.135986,1182.062378 1618.210571,1186.074097 1617.899536,1190.052368   C1617.586792,1194.055420 1615.488770,1196.150024 1610.623901,1194.557129   C1610.136108,1148.834839 1610.211304,1103.511108 1610.284424,1058.187256   C1610.291260,1053.932251 1610.285278,1049.677124 1610.285278,1046.994629   C1611.725464,1045.171143 1611.895630,1044.864136 1612.148926,1044.660767   C1612.401733,1044.457764 1612.723755,1044.294434 1613.039917,1044.224365   C1614.328369,1043.938843 1615.626099,1043.469604 1616.920532,1043.468872   C1715.570435,1043.408936 1814.220459,1043.385620 1912.870361,1043.375122   C1914.531860,1043.374878 1916.205688,1043.474121 1917.849976,1043.700684   C1918.801270,1043.831787 1919.704712,1044.311279 1921.797607,1045.041382   C1922.042969,1049.503052 1922.541138,1054.357544 1922.542969,1059.212280   C1922.586792,1174.193481 1922.569458,1289.174561 1922.605591,1404.155762   C1922.607056,1408.726685 1923.024414,1413.297485 1923.290039,1418.728760   C1930.195190,1418.728760 1936.273682,1418.728760 1943.301758,1418.728760   C1943.730957,1414.277466 1944.432739,1410.077637 1944.495728,1405.868286   C1945.154541,1361.905640 1945.705322,1317.941406 1946.297119,1273.977783   C1946.951538,1225.347778 1947.544800,1176.717041 1948.300659,1128.088623   C1948.958008,1085.805176 1949.758423,1043.523682 1950.591553,1001.243408   C1950.912842,984.940674 1951.422974,968.640564 1951.979004,952.343750   C1953.426025,909.921265 1978.375244,876.663940 2018.656616,863.343445   C2021.172363,862.511475 2023.700439,861.716736 2027.514160,860.488953   C2027.794067,839.630493 2028.077393,818.510315 2028.380005,795.957031   C2043.577026,795.957031 2057.698975,795.957031 2071.771729,795.957031   C2075.161133,786.547241 2073.302979,778.191467 2073.633057,770.027588   C2073.956299,762.041992 2073.703613,754.033081 2073.703613,746.034363   C2073.703613,737.785156 2073.703613,729.535950 2073.703613,720.911133   C2088.510498,717.307434 2102.663086,721.248535 2117.275391,718.072632   C2119.768799,698.996155 2117.081055,679.740417 2118.806396,660.700500   C2123.789307,659.718262 2124.092285,662.682312 2124.108398,665.884399   C2124.177002,679.547546 2124.202148,693.210999 2124.320312,706.873657   C2124.351074,710.448059 2124.658691,714.020081 2124.909668,718.986328   C2139.792236,719.224487 2153.926758,719.450684 2168.932617,719.690796   C2170.968994,745.166565 2168.539551,769.730042 2170.399658,795.507446   C2184.928467,795.507446 2198.736572,795.507446 2213.447021,795.507446   C2213.793457,800.393433 2214.240479,803.928284 2214.260498,807.465515   C2214.345459,822.462585 2214.217529,837.461121 2214.344238,852.457581   C2214.410645,860.310791 2214.573242,860.318298 2222.227295,862.675842   C2253.339600,872.258545 2274.412598,892.437073 2285.783203,922.865112   C2289.458008,932.698608 2290.341309,942.903320 2290.336426,953.327026   C2290.274902,1089.638062 2290.234863,1225.948975 2290.361084,1362.260010   C2290.380371,1383.220215 2291.245361,1404.179932 2291.759766,1425.139038   C2291.865723,1429.459595 2291.639893,1434.212280 2299.295410,1433.075439   C2299.496826,1429.769287 2299.834473,1426.534668 2299.867676,1423.296997   C2300.049072,1405.637085 2300.184570,1387.976440 2300.281006,1370.315918   C2300.494385,1331.216797 2328.814697,1302.665771 2367.813477,1302.510376   C2400.807617,1302.379028 2433.802979,1302.360107 2466.796875,1302.516846   C2505.984131,1302.703125 2534.028320,1330.914185 2534.275635,1370.225708   C2534.384521,1387.555420 2534.261963,1404.886719 2534.328125,1422.216919   C2534.341797,1425.784790 2534.726318,1429.351196 2535.007812,1434.049561   C2568.025879,1434.049561 2600.201172,1434.049561 2633.442627,1434.049561   C2633.882080,1439.297729 2634.528320,1443.444824 2634.531982,1447.592407   C2634.593994,1518.914062 2634.567627,1590.235718 2634.601562,1661.557373   C2634.603760,1665.817383 2634.954590,1670.077271 2635.159424,1674.703613   C2643.268799,1676.920898 2650.759033,1676.114136 2659.467041,1675.307617   C2659.830322,1671.770630 2660.445068,1668.292358 2660.496582,1664.805908   C2660.643555,1654.809692 2660.384766,1644.806030 2660.604492,1634.812378   C2661.190674,1608.173340 2676.496826,1586.945923 2701.536377,1577.745972   C2709.510498,1574.816284 2709.527344,1574.816650 2709.689453,1566.444702   C2709.747314,1563.446167 2709.703369,1560.445801 2709.703369,1557.446289   C2709.703613,1390.473633 2709.703613,1223.500977 2709.703613,1056.528320   C2709.703613,1051.569946 2709.703613,1046.611572 2709.703613,1040.968628   C2712.988770,1040.338135 2715.471436,1039.518433 2717.975342,1039.446533   C2724.968750,1039.245728 2731.971680,1039.410522 2738.969482,1039.327759   C2748.635254,1039.213501 2748.748291,1039.070312 2751.917236,1030.316040   C2756.113037,1018.725281 2760.299316,1007.130676 2764.582031,995.571899   C2767.454834,987.818115 2767.526123,987.701050 2776.108398,987.679932   C2804.390625,987.610413 2832.676270,987.905212 2860.952393,987.483154   C2868.258301,987.374084 2871.766602,990.378052 2874.433838,996.558899   C2879.448486,1008.179932 2885.224854,1019.474243 2890.164062,1031.125000   C2892.739990,1037.200806 2896.404785,1039.886963 2903.101807,1039.447632   C2910.402344,1038.968872 2917.760254,1039.270020 2925.090576,1039.387451   C2928.322998,1039.439209 2931.549316,1039.876831 2936.031982,1040.241211   C2936.566895,1064.483521 2936.221680,1088.039062 2936.282959,1111.583252   C2936.344238,1135.245972 2936.296387,1158.908813 2936.296387,1182.571655   C2936.296387,1206.200928 2936.296387,1229.830200 2936.296387,1254.677368   C2941.424072,1254.962524 2945.779785,1255.204712 2951.161621,1255.503906   C2951.441650,1249.874756 2951.863525,1245.333984 2951.865234,1240.792969   C2951.902588,1137.143311 2951.869629,1033.493652 2951.911865,929.843933   C2951.921875,905.517883 2952.139160,881.191833 2952.310303,856.866150   C2952.331055,853.923096 2952.662354,850.982300 2952.910645,847.081665   C2960.077637,846.439880 2966.863770,845.832275 2974.519287,845.146790   C2975.093262,836.765076 2975.627441,828.962769 2976.229980,820.158936   C2987.632080,819.431824 2998.471924,818.665344 3009.321533,818.079041   C3015.143799,817.764404 3021.367920,819.319336 3024.699707,811.950073   C3025.370605,810.465393 3029.422119,810.022949 3031.940430,809.948486   C3040.265381,809.702454 3048.601562,809.839233 3056.933594,809.838989   C3112.257812,809.837402 3167.582031,809.840942 3222.906250,809.835022   C3228.869629,809.834351 3234.834717,809.114624 3238.978516,815.327454   C3240.079346,816.977966 3243.681641,817.430420 3246.187012,817.582886   C3252.832031,817.987244 3259.515137,817.750305 3266.164795,818.108521   C3271.409912,818.390930 3276.628174,819.178406 3282.685791,819.830627   C3283.176025,828.429810 3283.622070,836.252258 3284.122070,845.018433   C3291.086670,845.546936 3297.537842,846.036499 3305.383545,846.631836   C3305.626709,932.830933 3305.319092,1018.371399 3305.462646,1103.909668   C3305.606201,1189.459473 3304.901611,1275.015869 3306.203613,1361.776611   C3311.461914,1361.776611 3315.681885,1361.776611 3320.764648,1361.740234  z"/>
<path fill="#A6CAEE" opacity="1.000000" stroke="none" d=" M1226.140869,1332.865967   C1220.890137,1333.944092 1215.515137,1334.632812 1210.252808,1334.133301   C1202.480591,1333.395264 1197.294189,1342.749268 1201.744995,1348.809204   C1206.598755,1355.418091 1206.050171,1362.554077 1206.050659,1369.814941   C1206.066650,1581.808594 1206.066528,1793.802368 1206.058716,2005.796021   C1206.058105,2023.290527 1207.085815,2022.084717 1189.832031,2022.131348   C1186.166016,2022.141357 1182.497925,2021.998901 1178.834106,2022.077026   C1173.718872,2022.186157 1171.621704,2019.545776 1171.681152,2014.684570   C1171.717896,2011.685669 1171.626587,2008.685425 1171.626465,2005.685791   C1171.622925,1921.688354 1171.613281,1837.690796 1171.645020,1753.693359   C1171.647461,1747.441284 1171.281006,1741.351685 1174.875488,1735.374390   C1177.948608,1730.264038 1174.870850,1725.799927 1168.613403,1724.647095   C1165.066040,1723.993408 1161.424194,1723.852905 1156.486328,1723.343018   C1156.286865,1717.134277 1156.124512,1711.272217 1155.904053,1705.412231   C1155.590332,1697.066772 1155.083862,1696.498901 1146.531006,1696.322144   C1139.623413,1696.179321 1132.710449,1696.293213 1124.696289,1696.293213   C1124.387573,1702.460938 1124.011230,1707.317017 1123.927490,1712.178223   C1123.722412,1724.087646 1123.660400,1724.213013 1111.388306,1724.291138   C1106.388550,1724.322876 1101.387207,1724.368774 1096.389160,1724.272339   C1086.704468,1724.085205 1086.109863,1723.548828 1085.959717,1714.115356   C1085.832275,1706.117554 1085.926392,1698.116211 1085.924805,1690.116455   C1085.920532,1668.783691 1085.992920,1647.450684 1085.880127,1626.118408   C1085.829468,1616.527588 1085.229980,1615.972168 1075.587280,1615.892578   C1061.588745,1615.777100 1047.587158,1615.754395 1033.589355,1615.908936   C1025.172119,1616.001953 1024.502808,1616.729004 1024.324829,1625.097046   C1024.154907,1633.093384 1024.275879,1641.095825 1024.270874,1649.095581   C1024.268555,1652.709473 1024.270508,1656.323364 1024.270508,1660.996826   C1019.443604,1661.453369 1015.617188,1661.843140 1011.785461,1662.171387   C1005.234863,1662.732422 1004.302795,1663.354980 1004.181213,1669.973755   C1003.948486,1682.635864 1004.089661,1695.304932 1004.075500,1707.971069   C1004.073242,1709.970947 1004.107300,1711.971802 1004.061035,1713.970703   C1003.819885,1724.382812 1002.735840,1725.177734 991.094604,1722.555908   C990.650452,1714.681641 990.189209,1706.503296 989.720276,1698.189331   C982.130371,1695.187866 975.029846,1696.033081 966.706543,1697.427979   C966.297485,1705.678589 965.893433,1713.829346 965.434387,1723.089600   C961.677368,1723.528442 958.203491,1724.012207 954.714417,1724.326660   C945.307190,1725.174194 943.273743,1728.731567 946.161011,1737.373535   C947.693176,1741.959473 948.264160,1747.061890 948.271606,1751.932617   C948.394897,1832.263428 948.359375,1912.594360 948.359375,1992.925293   C948.359314,2052.923584 948.359253,2112.921631 948.359192,2172.919922   C948.359192,2177.190186 948.359192,2181.460449 948.359192,2186.843506   C935.446106,2188.478271 923.701355,2188.024658 910.909424,2187.218018   C910.563232,2183.087891 910.012207,2179.571045 910.010925,2176.054443   C909.966003,2056.058105 909.971436,1936.061646 909.978699,1816.065186   C909.979004,1810.769775 910.121765,1806.351562 915.335938,1802.124023   C922.303101,1796.475464 917.806824,1788.158081 906.459717,1785.795654   C905.584534,1780.988281 905.432861,1776.325806 905.432617,1771.663208   C905.420959,1545.721802 905.425720,1319.780396 905.406738,1093.838989   C905.406128,1086.955200 905.749451,1080.418823 901.038086,1074.001953   C896.423889,1067.717285 901.712952,1060.649292 910.786011,1060.374390   C923.105286,1060.000854 935.443420,1060.283325 947.772949,1060.198853   C951.352295,1060.174316 954.929688,1059.856567 959.689087,1059.612671   C960.360413,1045.064819 960.221497,1031.239746 959.735718,1017.308472   C958.167908,1016.552429 957.020325,1015.961792 955.842957,1015.438232   C952.123169,1013.784058 949.624634,1011.215271 950.799866,1006.904663   C951.938782,1002.727234 955.428162,1001.489746 959.376282,1001.459290   C969.372803,1001.382202 979.370605,1001.435425 989.366516,1001.318054   C993.286987,1001.272095 997.203735,1000.910278 1001.947815,1000.646362   C1002.572937,993.371826 1003.417358,986.814392 1003.641357,980.235840   C1004.067261,967.730469 1003.919861,967.698303 1016.832764,967.657104   C1028.829590,967.618774 1040.826782,967.685974 1052.823364,967.620117   C1056.089844,967.602234 1059.354736,967.271851 1064.014893,967.005188   C1064.757446,953.417725 1065.472168,940.340820 1066.186768,927.263916   C1066.749390,927.271423 1067.312134,927.278931 1067.874756,927.286499   C1067.874756,940.040894 1067.874756,952.795349 1067.874756,966.649658   C1072.407104,967.041504 1075.901611,967.576599 1079.400024,967.604675   C1092.729004,967.711914 1106.060547,967.552185 1119.388916,967.695862   C1128.666382,967.795898 1129.682739,968.861389 1129.868774,978.082947   C1130.014648,985.310913 1129.898071,992.544250 1129.898071,1000.834167   C1136.812744,1001.030579 1142.382080,1001.267822 1147.953369,1001.327942   C1155.617188,1001.410645 1163.282959,1001.306580 1170.946899,1001.384888   C1175.656738,1001.433044 1180.753662,1001.249084 1182.005859,1007.398865   C1183.173096,1013.131165 1178.885742,1014.767456 1174.675659,1016.334656   C1174.121094,1016.541077 1173.747192,1017.233093 1172.904175,1018.093445   C1172.904175,1031.220459 1172.904175,1044.755737 1172.904175,1059.295654   C1176.582520,1059.634766 1179.758545,1060.152588 1182.938843,1060.180664   C1194.601685,1060.283936 1206.265869,1060.203003 1217.929443,1060.242920   C1220.588501,1060.251953 1223.337769,1060.073730 1225.888428,1060.662354   C1233.576904,1062.436768 1236.462158,1070.315552 1230.917114,1075.842285   C1227.241211,1079.505981 1225.840088,1083.037231 1225.849121,1088.011353   C1225.995605,1169.322510 1226.017212,1250.633789 1226.140869,1332.865967  z"/>
<path fill="#A6CAEE" opacity="1.000000" stroke="none" d=" M499.095703,2097.826172   C500.027771,2152.703125 500.044891,2207.354248 500.060028,2262.005615   C500.060394,2263.338623 500.099609,2264.675049 500.017487,2266.003662   C499.577698,2273.120850 498.898224,2274.080078 491.707489,2274.196045   C477.714844,2274.422119 463.715698,2274.214111 449.720703,2274.343018   C445.516388,2274.381592 441.316833,2274.939697 436.399567,2275.314453   C436.164093,2279.808838 435.838226,2283.396240 435.813416,2286.985840   C435.732880,2298.648682 435.924133,2310.315918 435.686279,2321.974609   C435.553741,2328.471191 434.524292,2329.278076 427.964661,2329.659668   C424.642792,2329.852783 421.301849,2329.723633 417.969513,2329.729004   C407.305878,2329.746094 396.638245,2329.585693 385.980011,2329.832520   C378.893646,2329.996582 377.874725,2330.976318 377.759613,2338.120117   C377.528748,2352.446045 377.674438,2366.777832 377.645355,2381.107178   C377.639954,2383.771729 377.575531,2386.437256 377.482056,2389.100342   C377.341492,2393.105225 375.212616,2395.308350 371.230377,2395.348633   C361.569550,2395.446533 351.907318,2395.430664 342.245758,2395.410645   C337.592804,2395.400879 335.796906,2392.757812 335.885010,2388.363037   C335.951752,2385.032471 335.853607,2381.698730 335.852448,2378.366455   C335.846802,2362.370850 335.886902,2346.375000 335.819641,2330.379639   C335.804626,2326.803223 335.423309,2323.228027 335.159241,2318.788330   C330.917419,2318.460205 327.378998,2317.971191 323.837708,2317.949951   C308.842346,2317.858887 293.845703,2317.978027 278.850433,2317.879150   C268.650238,2317.812012 268.082245,2317.290527 268.068970,2307.104248   C268.008148,2260.450439 268.038513,2213.796631 268.037201,2167.142822   C268.036194,2131.152588 267.960449,2095.162354 268.109406,2059.172607   C268.135132,2052.965088 266.782288,2047.553833 263.541321,2042.181152   C246.164139,2013.373535 229.068542,1984.396240 211.811646,1955.515869   C210.181732,1952.788086 208.107437,1950.325928 205.427536,1946.616577   C202.015594,1950.675659 199.505722,1953.621582 197.039322,1956.603149   C189.426666,1965.805908 181.830643,1975.022339 173.584579,1984.370605   C172.591919,1980.552246 171.939087,1976.596802 171.937759,1972.640991   C171.886063,1818.064087 171.893738,1663.487305 171.893661,1508.910400   C171.893646,1505.292725 171.893646,1501.675049 171.893646,1496.736328   C193.169586,1495.024658 213.717911,1496.972290 235.536163,1495.468140   C235.759384,1477.167847 235.976212,1459.391357 236.189026,1441.943359   C244.796432,1439.293335 366.591583,1438.992676 377.564667,1441.646362   C377.564667,1458.790649 377.564667,1476.307739 377.564667,1494.585449   C391.042267,1497.738281 403.789612,1494.603271 417.127655,1497.014404   C417.392944,1501.971558 417.879364,1506.830322 417.880371,1511.689087   C417.919006,1701.578735 417.913330,1891.468506 417.913513,2081.358154   C417.913513,2085.977539 417.913513,2090.597168 417.913513,2096.304443   C422.572571,2096.698242 426.398407,2097.274902 430.228333,2097.303711   C452.878510,2097.473389 475.529633,2097.515625 499.095703,2097.826172  z"/>
<path fill="#A6CAEE" opacity="1.000000" stroke="none" d=" M831.899109,1719.161865   C798.820679,1719.986450 765.841003,1719.754150 732.861877,1719.822998   C721.336243,1719.847046 714.134094,1726.880127 712.536011,1738.948608   C712.151672,1741.850830 712.478943,1744.847290 712.478943,1748.703125   C709.012939,1749.094971 706.165283,1749.666870 703.312317,1749.694946   C692.652344,1749.800049 681.981750,1749.997192 671.332092,1749.645752   C660.368225,1749.284058 652.593933,1754.123047 648.026367,1763.632446   C644.890991,1770.160034 642.937927,1777.255615 639.993652,1785.373047   C636.826172,1785.582275 632.621155,1785.897461 628.411499,1786.125854   C625.089050,1786.306152 621.660339,1785.910034 618.455322,1786.595459   C611.023254,1788.185059 608.124756,1797.139038 613.997925,1801.846924   C618.535400,1805.484009 619.859680,1809.250122 619.843567,1814.569580   C619.734619,1850.550537 619.708191,1886.532227 619.865051,1922.512695   C619.889954,1928.226807 618.315857,1932.626953 614.141846,1936.682251   C603.395020,1947.123901 593.205139,1958.141357 582.393005,1968.511841   C577.414062,1973.287476 575.504822,1978.448120 575.540466,1985.279297   C575.760681,2027.589355 575.673462,2069.901123 575.621765,2112.212402   C575.616577,2116.440430 575.165100,2120.667725 574.927795,2124.773193   C566.570312,2125.321777 525.357361,2109.776123 506.266479,2098.873535   C511.433411,2097.700439 516.993225,2097.093262 523.171875,2096.418457   C523.565247,2093.616943 524.191406,2091.096436 524.232605,2088.566406   C524.682007,2060.938965 525.129456,2033.310547 525.390747,2005.680664   C525.560547,1987.729248 525.564453,1969.773438 525.388367,1951.822144   C525.146729,1927.189331 524.418945,1902.559448 524.366394,1877.927368   C524.328064,1859.957764 525.317932,1841.986816 525.339844,1824.015869   C525.358887,1808.379761 524.356384,1792.742676 524.367981,1777.106445   C524.380554,1760.136841 525.411438,1743.166626 525.348511,1726.198975   C525.203796,1687.242432 524.645508,1648.287354 524.314087,1609.331299   C524.280762,1605.419922 524.650696,1601.505127 524.819641,1597.889526   C533.019470,1595.714111 816.846069,1595.061890 831.052856,1597.115967   C834.386719,1616.928223 831.655090,1637.156250 832.017700,1657.262085   C832.384033,1677.575806 832.034180,1697.902344 831.899109,1719.161865  z"/>
</svg>